adventprofmm-ThinItalic.ufo
<glyph name="exclam" format="1">
  <advance width="117"/>
  <unicode hex="0021"/>
  <outline>
    <contour>
      <point x="188.664" y="690" type="line" smooth="yes"/>
      <point x="190.577" y="699"/>
      <point x="203.49" y="708"/>
      <point x="210.49" y="708" type="qcurve" smooth="yes"/>
      <point x="224.49" y="708"/>
      <point x="220.664" y="690" type="qcurve" smooth="yes"/>
      <point x="91.5068" y="120" type="line"/>
      <point x="76.5068" y="120" type="line"/>
    </contour>
    <contour>
      <point x="78.826" y="18" type="qcurve" smooth="yes"/>
      <point x="77.3381" y="11"/>
      <point x="66" y="-0"/>
      <point x="59" y="-0" type="qcurve" smooth="yes"/>
      <point x="52" y="-0"/>
      <point x="43.3381" y="11"/>
      <point x="44.826" y="18" type="qcurve" smooth="yes"/>
      <point x="46.1014" y="24"/>
      <point x="59.2269" y="34"/>
      <point x="66.2269" y="34" type="qcurve" smooth="yes"/>
      <point x="73.2269" y="34"/>
      <point x="80.1014" y="24"/>
    </contour>
  </outline>
</glyph>
<glyph name="percent" format="1">
  <advance width="707"/>
  <unicode hex="0025"/>
  <outline>
    <contour>
      <point x="68" y="-0" type="line"/>
      <point x="753.364" y="698" type="line"/>
      <point x="779.364" y="698" type="line"/>
      <point x="94" y="-0" type="line"/>
    </contour>
    <contour>
      <point x="324.34" y="712" type="qcurve" smooth="yes"/>
      <point x="364.34" y="712"/>
      <point x="422.051" y="673"/>
      <point x="447.022" y="607"/>
      <point x="438.307" y="566" type="qcurve" smooth="yes"/>
      <point x="429.805" y="526"/>
      <point x="376.776" y="460"/>
      <point x="302.486" y="421"/>
      <point x="262.486" y="421" type="qcurve" smooth="yes"/>
      <point x="222.486" y="421"/>
      <point x="163.776" y="460"/>
      <point x="138.805" y="526"/>
      <point x="147.307" y="566" type="qcurve" smooth="yes"/>
      <point x="156.022" y="607"/>
      <point x="209.051" y="673"/>
      <point x="284.34" y="712"/>
    </contour>
    <contour>
      <point x="320.089" y="692" type="qcurve" smooth="yes"/>
      <point x="285.089" y="692"/>
      <point x="220.862" y="658"/>
      <point x="174.746" y="601"/>
      <point x="167.307" y="566" type="qcurve" smooth="yes"/>
      <point x="160.08" y="532"/>
      <point x="181.964" y="475"/>
      <point x="231.737" y="441"/>
      <point x="266.737" y="441" type="qcurve" smooth="yes"/>
      <point x="301.737" y="441"/>
      <point x="364.964" y="475"/>
      <point x="411.08" y="532"/>
      <point x="418.307" y="566" type="qcurve" smooth="yes"/>
      <point x="425.746" y="601"/>
      <point x="403.862" y="658"/>
      <point x="355.089" y="692"/>
    </contour>
    <contour>
      <point x="590.666" y="276" type="qcurve" smooth="yes"/>
      <point x="631.666" y="276"/>
      <point x="688.376" y="237"/>
      <point x="713.347" y="171"/>
      <point x="704.845" y="131" type="qcurve" smooth="yes"/>
      <point x="696.343" y="91"/>
      <point x="643.314" y="25"/>
      <point x="570.024" y="-14"/>
      <point x="529.024" y="-14" type="qcurve" smooth="yes"/>
      <point x="490.024" y="-14"/>
      <point x="432.314" y="25"/>
      <point x="407.343" y="91"/>
      <point x="415.845" y="131" type="qcurve" smooth="yes"/>
      <point x="424.347" y="171"/>
      <point x="477.376" y="237"/>
      <point x="551.666" y="276"/>
    </contour>
    <contour>
      <point x="586.414" y="256" type="qcurve" smooth="yes"/>
      <point x="552.414" y="256"/>
      <point x="489.188" y="222"/>
      <point x="443.284" y="166"/>
      <point x="435.845" y="131" type="qcurve" smooth="yes"/>
      <point x="428.618" y="97"/>
      <point x="450.502" y="40"/>
      <point x="499.488" y="7"/>
      <point x="533.488" y="7" type="qcurve" smooth="yes"/>
      <point x="568.488" y="7"/>
      <point x="632.502" y="40"/>
      <point x="678.618" y="97"/>
      <point x="685.845" y="131" type="qcurve" smooth="yes"/>
      <point x="693.284" y="166"/>
      <point x="671.188" y="222"/>
      <point x="621.414" y="256"/>
    </contour>
  </outline>
</glyph>
<glyph name="parenleft" format="1">
  <advance width="169"/>
  <unicode hex="0028"/>
  <outline>
    <contour>
      <point x="322.62" y="798" type="line"/>
      <point x="298.432" y="783"/>
      <point x="258.48" y="755"/>
      <point x="225.828" y="719"/>
      <point x="202.413" y="670"/>
      <point x="194.973" y="635" type="qcurve" smooth="yes"/>
      <point x="160.964" y="475"/>
      <point x="113.989" y="254"/>
      <point x="83.1687" y="109"/>
      <point x="73.8162" y="65" type="qcurve" smooth="yes"/>
      <point x="64.6762" y="22"/>
      <point x="73.5605" y="-35"/>
      <point x="96.9085" y="-71"/>
      <point x="123.232" y="-93"/>
      <point x="132.532" y="-101" type="qcurve"/>
      <point x="117.706" y="-119" type="line"/>
      <point x="94.5318" y="-101"/>
      <point x="63.1838" y="-65"/>
      <point x="47.1112" y="-23"/>
      <point x="47.8018" y="32"/>
      <point x="55.6664" y="69" type="qcurve" smooth="yes"/>
      <point x="173.848" y="625" type="line" smooth="yes"/>
      <point x="184.263" y="674"/>
      <point x="219.292" y="740"/>
      <point x="274.92" y="790"/>
      <point x="315.808" y="813" type="qcurve"/>
    </contour>
  </outline>
</glyph>
<glyph name="comma" format="1">
  <advance width="111"/>
  <unicode hex="002C"/>
  <outline>
    <contour>
      <point x="17.8843" y="-57" type="line"/>
      <point x="34.8601" y="-43"/>
      <point x="52.0242" y="-14"/>
      <point x="55.3623" y="-3" type="qcurve"/>
      <point x="50.7874" y="-1"/>
      <point x="46.4879" y="7"/>
      <point x="47.7632" y="13" type="qcurve" smooth="yes"/>
      <point x="49.2511" y="20"/>
      <point x="60.3767" y="30"/>
      <point x="67.3767" y="30" type="qcurve" smooth="yes"/>
      <point x="75.3767" y="30"/>
      <point x="82.4637" y="21"/>
      <point x="80.7632" y="13" type="qcurve" smooth="yes"/>
      <point x="76.5121" y="-7"/>
      <point x="58.348" y="-36"/>
      <point x="39.3094" y="-55"/>
      <point x="25.3964" y="-64"/>
      <point x="25.3964" y="-64" type="qcurve"/>
    </contour>
  </outline>
</glyph>
<glyph name="hyphen" format="1">
  <advance width="390"/>
  <unicode hex="002D"/>
  <outline>
    <contour>
      <point x="116.535" y="393" type="line"/>
      <point x="120.786" y="413" type="line"/>
      <point x="439.786" y="413" type="line"/>
      <point x="435.535" y="393" type="line"/>
    </contour>
  </outline>
</glyph>
<glyph name="period" format="1">
  <advance width="102"/>
  <unicode hex="002E"/>
  <outline>
    <contour>
      <point x="57.3767" y="30" type="qcurve" smooth="yes"/>
      <point x="65.3767" y="30"/>
      <point x="73.2511" y="20"/>
      <point x="71.7632" y="13" type="qcurve" smooth="yes"/>
      <point x="70.2753" y="6"/>
      <point x="58.1498" y="-4"/>
      <point x="50.1498" y="-4" type="qcurve" smooth="yes"/>
      <point x="44.1498" y="-4"/>
      <point x="36.2753" y="6"/>
      <point x="37.7632" y="13" type="qcurve" smooth="yes"/>
      <point x="39.2511" y="20"/>
      <point x="51.3767" y="30"/>
    </contour>
  </outline>
</glyph>
<glyph name="one" format="1">
  <advance width="204"/>
  <unicode hex="0031"/>
  <outline>
    <contour>
      <point x="136.809" y="606" type="line"/>
      <point x="164.297" y="613"/>
      <point x="221.249" y="641"/>
      <point x="273.113" y="678"/>
      <point x="289.364" y="698" type="qcurve"/>
      <point x="309.364" y="698" type="line"/>
      <point x="161" y="-0" type="line"/>
      <point x="141" y="-0" type="line"/>
      <point x="282.138" y="664" type="line"/>
      <point x="261.524" y="647"/>
      <point x="215.36" y="618"/>
      <point x="164.684" y="596"/>
      <point x="138.408" y="590" type="qcurve"/>
    </contour>
  </outline>
</glyph>
<glyph name="three" format="1">
  <advance width="439"/>
  <unicode hex="0033"/>
  <outline>
    <contour>
      <point x="287.786" y="413" type="line" smooth="yes"/>
      <point x="331.786" y="413"/>
      <point x="400.984" y="381"/>
      <point x="424.395" y="350" type="qcurve" smooth="yes"/>
      <point x="473.216" y="288"/>
      <point x="454.299" y="199" type="qcurve" smooth="yes"/>
      <point x="435.381" y="110"/>
      <point x="360.628" y="50" type="qcurve"/>
      <point x="287.449" y="-12"/>
      <point x="197.449" y="-12" type="qcurve" smooth="yes"/>
      <point x="143.449" y="-12"/>
      <point x="61.2897" y="39"/>
      <point x="41.4296" y="82" type="qcurve"/>
      <point x="60.9803" y="94" type="line"/>
      <point x="80.8404" y="51"/>
      <point x="148.488" y="7"/>
      <point x="195.488" y="7" type="qcurve" smooth="yes"/>
      <point x="242.488" y="7"/>
      <point x="321.652" y="36"/>
      <point x="354.241" y="67" type="qcurve" smooth="yes"/>
      <point x="387.618" y="97"/>
      <point x="428.497" y="167"/>
      <point x="436.999" y="207" type="qcurve" smooth="yes"/>
      <point x="445.714" y="248"/>
      <point x="430.53" y="313"/>
      <point x="406.844" y="338" type="qcurve" smooth="yes"/>
      <point x="382.371" y="364"/>
      <point x="324.535" y="393"/>
      <point x="289.535" y="393" type="qcurve" smooth="yes"/>
      <point x="203.535" y="393" type="line"/>
      <point x="477.113" y="678" type="line"/>
      <point x="212.113" y="678" type="line"/>
      <point x="216.364" y="698" type="line"/>
      <point x="505.364" y="698" type="line"/>
      <point x="501.113" y="678" type="line"/>
      <point x="244.786" y="413" type="line"/>
    </contour>
  </outline>
</glyph>
<glyph name="seven" format="1">
  <advance width="428"/>
  <unicode hex="0037"/>
  <outline>
    <contour>
      <point x="56" y="-0" type="line"/>
      <point x="36" y="-0" type="line"/>
      <point x="537.113" y="678" type="line"/>
      <point x="169.113" y="678" type="line"/>
      <point x="173.364" y="698" type="line"/>
      <point x="564.364" y="698" type="line"/>
      <point x="560.113" y="678" type="line"/>
    </contour>
  </outline>
</glyph>
<glyph name="colon" format="1">
  <advance width="110"/>
  <unicode hex="003A"/>
  <outline>
    <contour>
      <point x="100.396" y="143" type="qcurve" smooth="yes"/>
      <point x="98.9077" y="136"/>
      <point x="86.9947" y="127"/>
      <point x="79.9947" y="127" type="qcurve" smooth="yes"/>
      <point x="72.9947" y="127"/>
      <point x="64.9077" y="136"/>
      <point x="66.3956" y="143" type="qcurve" smooth="yes"/>
      <point x="68.096" y="151"/>
      <point x="79.7965" y="159"/>
      <point x="86.7965" y="159" type="qcurve" smooth="yes"/>
      <point x="93.7965" y="159"/>
      <point x="102.096" y="151"/>
    </contour>
    <contour>
      <point x="151.622" y="384" type="qcurve" smooth="yes"/>
      <point x="150.134" y="377"/>
      <point x="138.008" y="367"/>
      <point x="131.008" y="367" type="qcurve" smooth="yes"/>
      <point x="124.008" y="367"/>
      <point x="116.134" y="377"/>
      <point x="117.622" y="384" type="qcurve" smooth="yes"/>
      <point x="119.11" y="391"/>
      <point x="131.023" y="400"/>
      <point x="138.023" y="400" type="qcurve" smooth="yes"/>
      <point x="145.023" y="400"/>
      <point x="153.11" y="391"/>
    </contour>
  </outline>
</glyph>
<glyph name="semicolon" format="1">
  <advance width="122"/>
  <unicode hex="003B"/>
  <outline>
    <contour>
      <point x="49.4538" y="68" type="line"/>
      <point x="66.4296" y="82"/>
      <point x="83.0189" y="113"/>
      <point x="86.1445" y="123" type="qcurve"/>
      <point x="81.5696" y="125"/>
      <point x="77.4826" y="134"/>
      <point x="78.7579" y="140" type="qcurve" smooth="yes"/>
      <point x="80.0333" y="146"/>
      <point x="92.1588" y="156"/>
      <point x="98.1588" y="156" type="qcurve" smooth="yes"/>
      <point x="106.159" y="156"/>
      <point x="113.458" y="148"/>
      <point x="111.758" y="140" type="qcurve" smooth="yes"/>
      <point x="107.507" y="120"/>
      <point x="89.3426" y="91"/>
      <point x="70.3041" y="72"/>
      <point x="56.3911" y="63"/>
      <point x="56.3911" y="63" type="qcurve"/>
    </contour>
    <contour>
      <point x="164.622" y="384" type="qcurve" smooth="yes"/>
      <point x="163.134" y="377"/>
      <point x="151.008" y="367"/>
      <point x="145.008" y="367" type="qcurve" smooth="yes"/>
      <point x="138.008" y="367"/>
      <point x="129.134" y="377"/>
      <point x="130.622" y="384" type="qcurve" smooth="yes"/>
      <point x="132.11" y="391"/>
      <point x="145.023" y="400"/>
      <point x="152.023" y="400" type="qcurve" smooth="yes"/>
      <point x="158.023" y="400"/>
      <point x="166.11" y="391"/>
    </contour>
  </outline>
</glyph>
<glyph name="equal" format="1">
  <advance width="386"/>
  <unicode hex="003D"/>
  <outline>
    <contour>
      <point x="115.535" y="393" type="line"/>
      <point x="119.361" y="411" type="line"/>
      <point x="438.361" y="411" type="line"/>
      <point x="434.535" y="393" type="line"/>
    </contour>
    <contour>
      <point x="93.2163" y="288" type="line"/>
      <point x="97.2549" y="307" type="line"/>
      <point x="416.255" y="307" type="line"/>
      <point x="412.216" y="288" type="line"/>
    </contour>
  </outline>
</glyph>
<glyph name="greater" format="1">
  <advance width="350"/>
  <unicode hex="003E"/>
  <outline>
    <contour>
      <point x="162.423" y="623" type="line"/>
      <point x="178.973" y="635" type="line"/>
      <point x="397.095" y="358" type="line"/>
      <point x="60.792" y="79" type="line"/>
      <point x="49.9803" y="94" type="line"/>
      <point x="373.67" y="356" type="line"/>
    </contour>
  </outline>
</glyph>
<glyph name="question" format="1">
  <advance width="407"/>
  <unicode hex="003F"/>
  <outline>
    <contour>
      <point x="137.655" y="530" type="line"/>
      <point x="150.621" y="591"/>
      <point x="219.413" y="670"/>
      <point x="308.49" y="708"/>
      <point x="352.277" y="707" type="qcurve" smooth="yes"/>
      <point x="396.065" y="706"/>
      <point x="467.775" y="667"/>
      <point x="503.621" y="591"/>
      <point x="491.93" y="536" type="qcurve" smooth="yes"/>
      <point x="480.24" y="481"/>
      <point x="422.723" y="408"/>
      <point x="383.284" y="373" type="qcurve" smooth="yes"/>
      <point x="346.482" y="341"/>
      <point x="297.342" y="298"/>
      <point x="264.902" y="263"/>
      <point x="246.188" y="222"/>
      <point x="240.023" y="193" type="qcurve" smooth="yes"/>
      <point x="237.473" y="181"/>
      <point x="230.033" y="146"/>
      <point x="224.294" y="119"/>
      <point x="224.294" y="119" type="qcurve"/>
      <point x="206.294" y="119" type="line"/>
      <point x="220.748" y="187" type="line" smooth="yes"/>
      <point x="229.25" y="227"/>
      <point x="256.303" y="279"/>
      <point x="295.806" y="319"/>
      <point x="347.945" y="362"/>
      <point x="380.535" y="393" type="qcurve" smooth="yes"/>
      <point x="408.274" y="420"/>
      <point x="445.626" y="464"/>
      <point x="468.191" y="509"/>
      <point x="473.718" y="535" type="qcurve" smooth="yes"/>
      <point x="482.433" y="576"/>
      <point x="458.312" y="646"/>
      <point x="396.451" y="689"/>
      <point x="348.451" y="689" type="qcurve" smooth="yes"/>
      <point x="310.451" y="689"/>
      <point x="230.225" y="655"/>
      <point x="168.346" y="585"/>
      <point x="156.655" y="530" type="qcurve"/>
    </contour>
    <contour>
      <point x="197.377" y="30" type="qcurve" smooth="yes"/>
      <point x="203.377" y="30"/>
      <point x="211.251" y="20"/>
      <point x="209.763" y="13" type="qcurve" smooth="yes"/>
      <point x="208.275" y="6"/>
      <point x="196.15" y="-4"/>
      <point x="190.15" y="-4" type="qcurve" smooth="yes"/>
      <point x="183.15" y="-4"/>
      <point x="174.275" y="6"/>
      <point x="175.763" y="13" type="qcurve" smooth="yes"/>
      <point x="177.251" y="20"/>
      <point x="190.377" y="30"/>
    </contour>
  </outline>
</glyph>
<glyph name="at" format="1">
  <advance width="717"/>
  <unicode hex="0040"/>
  <outline>
    <contour>
      <point x="788.327" y="472" type="line"/>
      <point x="774.201" y="462"/>
      <point x="755.375" y="444"/>
      <point x="741.998" y="414"/>
      <point x="736.047" y="386" type="qcurve" smooth="yes"/>
      <point x="690.135" y="170" type="line" smooth="yes"/>
      <point x="678.444" y="115"/>
      <point x="605.739" y="27"/>
      <point x="501.561" y="-35"/>
      <point x="381.759" y="-67"/>
      <point x="321.759" y="-67" type="qcurve" smooth="yes"/>
      <point x="252.759" y="-67"/>
      <point x="148.411" y="-31"/>
      <point x="82.0771" y="38"/>
      <point x="59.1202" y="137"/>
      <point x="72.7239" y="201" type="qcurve" smooth="yes"/>
      <point x="79.9508" y="235"/>
      <point x="94.8298" y="305"/>
      <point x="100.781" y="333" type="qcurve" smooth="yes"/>
      <point x="115.448" y="402"/>
      <point x="198.254" y="514"/>
      <point x="328.07" y="579"/>
      <point x="414.07" y="579" type="qcurve" smooth="yes"/>
      <point x="466.07" y="579"/>
      <point x="550.694" y="549"/>
      <point x="601.94" y="489"/>
      <point x="601.95" y="442" type="qcurve"/>
      <point x="670.95" y="442" type="line"/>
      <point x="657.124" y="424" type="line"/>
      <point x="601.124" y="424" type="line"/>
      <point x="599.636" y="417"/>
      <point x="587.733" y="361"/>
      <point x="570.516" y="280"/>
      <point x="552.023" y="193"/>
      <point x="535.869" y="117"/>
      <point x="525.666" y="69"/>
      <point x="525.666" y="69" type="qcurve"/>
      <point x="525.666" y="69"/>
      <point x="489.241" y="67"/>
      <point x="432.391" y="63"/>
      <point x="367.966" y="61"/>
      <point x="340.966" y="61" type="qcurve" smooth="yes"/>
      <point x="290.966" y="61"/>
      <point x="228.705" y="88"/>
      <point x="198.483" y="134"/>
      <point x="193.598" y="191"/>
      <point x="200.188" y="222" type="qcurve" smooth="yes"/>
      <point x="214.216" y="288" type="line" smooth="yes"/>
      <point x="226.97" y="348"/>
      <point x="285.211" y="415"/>
      <point x="360.95" y="442"/>
      <point x="399.95" y="442" type="qcurve" smooth="yes"/>
      <point x="404.95" y="442"/>
      <point x="444.95" y="442"/>
      <point x="498.95" y="442"/>
      <point x="550.95" y="442"/>
      <point x="585.95" y="442"/>
      <point x="585.95" y="442" type="qcurve"/>
      <point x="583.578" y="492"/>
      <point x="501.244" y="561"/>
      <point x="410.244" y="561" type="qcurve" smooth="yes"/>
      <point x="365.244" y="561"/>
      <point x="274.143" y="537"/>
      <point x="192.877" y="484"/>
      <point x="133.81" y="399"/>
      <point x="120.844" y="338" type="qcurve" smooth="yes"/>
      <point x="112.129" y="297"/>
      <point x="97.6755" y="229"/>
      <point x="91.0862" y="198" type="qcurve" smooth="yes"/>
      <point x="75.5696" y="125"/>
      <point x="117.188" y="15"/>
      <point x="233.797" y="-48"/>
      <point x="330.797" y="-48" type="qcurve" smooth="yes"/>
      <point x="384.797" y="-48"/>
      <point x="496.174" y="-18"/>
      <point x="594.077" y="38"/>
      <point x="663.082" y="118"/>
      <point x="673.71" y="168" type="qcurve" smooth="yes"/>
      <point x="676.898" y="183"/>
      <point x="684.125" y="217"/>
      <point x="691.989" y="254"/>
      <point x="701.129" y="297"/>
      <point x="711.119" y="344"/>
      <point x="716.858" y="371" type="qcurve" smooth="yes"/>
      <point x="723.873" y="404"/>
      <point x="737.375" y="444"/>
      <point x="760.114" y="471"/>
      <point x="781.877" y="484" type="qcurve"/>
    </contour>
    <contour>
      <point x="391.124" y="424" type="qcurve"/>
      <point x="347.124" y="424"/>
      <point x="281.11" y="391"/>
      <point x="238.931" y="329"/>
      <point x="229.579" y="285" type="qcurve" smooth="yes"/>
      <point x="217.25" y="227" type="line" smooth="yes"/>
      <point x="201.734" y="154"/>
      <point x="264.792" y="79"/>
      <point x="343.792" y="79" type="qcurve" smooth="yes"/>
      <point x="369.792" y="79"/>
      <point x="429.217" y="81"/>
      <point x="481.067" y="85"/>
      <point x="513.492" y="87"/>
      <point x="513.492" y="87" type="qcurve"/>
      <point x="585.124" y="424" type="line"/>
      <point x="578.124" y="424"/>
      <point x="535.124" y="424"/>
      <point x="479.124" y="424"/>
      <point x="426.124" y="424"/>
    </contour>
  </outline>
</glyph>
<glyph name="B" format="1">
  <advance width="502"/>
  <unicode hex="0042"/>
  <outline>
    <contour>
      <point x="409.364" y="698" type="line" smooth="yes"/>
      <point x="491.364" y="698"/>
      <point x="568.147" y="617"/>
      <point x="551.355" y="538" type="qcurve" smooth="yes"/>
      <point x="542.215" y="495"/>
      <point x="476.636" y="417"/>
      <point x="434.66" y="403" type="qcurve"/>
      <point x="433.81" y="399" type="line"/>
      <point x="491.709" y="375"/>
      <point x="532.516" y="280"/>
      <point x="517.212" y="208" type="qcurve" smooth="yes"/>
      <point x="497.444" y="115"/>
      <point x="375" y="-0"/>
      <point x="271" y="-0" type="qcurve" smooth="yes"/>
      <point x="41" y="-0" type="line"/>
      <point x="189.364" y="698" type="line"/>
    </contour>
    <contour>
      <point x="384.361" y="411" type="line" smooth="yes"/>
      <point x="419.361" y="411"/>
      <point x="480.588" y="445"/>
      <point x="525.129" y="504"/>
      <point x="532.993" y="541" type="qcurve" smooth="yes"/>
      <point x="546.172" y="603"/>
      <point x="483.326" y="679"/>
      <point x="397.326" y="679" type="qcurve" smooth="yes"/>
      <point x="204.326" y="679" type="line"/>
      <point x="147.361" y="411" type="line"/>
    </contour>
    <contour>
      <point x="273.039" y="19" type="line" smooth="yes"/>
      <point x="333.039" y="19"/>
      <point x="425.604" y="64"/>
      <point x="485.458" y="148"/>
      <point x="497.574" y="205" type="qcurve" smooth="yes"/>
      <point x="515.854" y="291"/>
      <point x="441.535" y="393"/>
      <point x="355.535" y="393" type="qcurve" smooth="yes"/>
      <point x="143.535" y="393" type="line"/>
      <point x="64.0386" y="19" type="line"/>
    </contour>
  </outline>
</glyph>
<glyph name="G" format="1">
  <advance width="475"/>
  <unicode hex="0047"/>
    <anchor name="bottom" x="237" y="0"/>
    <anchor name="top" x="393.229" y="735"/>
  <outline>
    <contour>
      <point x="501.65" y="657" type="line"/>
      <point x="468.051" y="673"/>
      <point x="405.451" y="689"/>
      <point x="376.451" y="689" type="qcurve" smooth="yes"/>
      <point x="335.451" y="689"/>
      <point x="265.775" y="667"/>
      <point x="238.099" y="645" type="qcurve"/>
      <point x="214.635" y="624"/>
      <point x="169.268" y="547"/>
      <point x="158.215" y="495" type="qcurve" smooth="yes"/>
      <point x="92.5355" y="186" type="line" smooth="yes"/>
      <point x="75.9561" y="108"/>
      <point x="158.913" y="9"/>
      <point x="249.913" y="9" type="qcurve" smooth="yes"/>
      <point x="340.913" y="9"/>
      <point x="395.328" y="58" type="qcurve"/>
      <point x="421.642" y="83"/>
      <point x="455.821" y="145"/>
      <point x="463.685" y="182" type="qcurve" smooth="yes"/>
      <point x="484.516" y="280" type="line"/>
      <point x="309.516" y="280" type="line"/>
      <point x="305.554" y="299" type="line"/>
      <point x="507.554" y="299" type="line"/>
      <point x="444" y="0" type="line"/>
      <point x="425" y="0" type="line"/>
      <point x="443.705" y="88" type="line"/>
      <point x="421.691" y="55"/>
      <point x="361.551" y="12"/>
      <point x="287.874" y="-10"/>
      <point x="242.874" y="-10" type="qcurve" smooth="yes"/>
      <point x="197.874" y="-10"/>
      <point x="129.188" y="15"/>
      <point x="103.502" y="40" type="qcurve" smooth="yes"/>
      <point x="77.8162" y="65"/>
      <point x="62.5454" y="139"/>
      <point x="72.9606" y="188" type="qcurve" smooth="yes"/>
      <point x="139.703" y="502" type="line" smooth="yes"/>
      <point x="153.094" y="565"/>
      <point x="216.437" y="656"/>
      <point x="264.964" y="682" type="qcurve"/>
      <point x="290.514" y="694"/>
      <point x="346.277" y="707"/>
      <point x="377.277" y="707" type="qcurve" smooth="yes"/>
      <point x="455.277" y="707"/>
      <point x="512.263" y="674" type="qcurve"/>
    </contour>
    <contour>
      <point x="237" y="0" type="move" name="bottom"/>
    </contour>
    <contour>
      <point x="393.229" y="735" type="move" name="top"/>
    </contour>
  </outline>
</glyph>
<glyph name="I" format="1">
  <advance width="162"/>
  <unicode hex="0049"/>
    <anchor name="top" x="237.229" y="735"/>
    <anchor name="tonos" x="175.79" y="700"/>
    <anchor name="ogonek" x="81" y="0"/>
  <outline>
    <contour>
      <point x="159.326" y="679" type="line"/>
      <point x="163.364" y="698" type="line"/>
      <point x="267.364" y="698" type="line"/>
      <point x="119" y="-0" type="line"/>
      <point x="101" y="-0" type="line"/>
      <point x="244.688" y="676" type="line"/>
    </contour>
    <contour>
      <point x="237.229" y="735" type="move" name="top"/>
    </contour>
    <contour>
      <point x="175.79" y="700" type="move" name="tonos"/>
    </contour>
    <contour>
      <point x="81" y="0" type="move" name="ogonek"/>
    </contour>
  </outline>
</glyph>
<glyph name="K" format="1">
  <advance width="457"/>
  <unicode hex="004B"/>
    <anchor name="bottom" x="228" y="0"/>
  <outline>
    <contour>
      <point x="125.255" y="307" type="line"/>
      <point x="511.364" y="698" type="line"/>
      <point x="533.364" y="698" type="line"/>
      <point x="257.636" y="417" type="line"/>
      <point x="437" y="0" type="line"/>
      <point x="416" y="0" type="line"/>
      <point x="241.448" y="402" type="line"/>
      <point x="119.303" y="279" type="line"/>
      <point x="60" y="0" type="line"/>
      <point x="41" y="0" type="line"/>
      <point x="189.364" y="698" type="line"/>
      <point x="208.364" y="698" type="line"/>
    </contour>
    <contour>
      <point x="228" y="0" type="move" name="bottom"/>
    </contour>
  </outline>
</glyph>
<glyph name="L" format="1">
  <advance width="419"/>
  <unicode hex="004C"/>
    <anchor name="top" x="365.229" y="735"/>
    <anchor name="bottom" x="209" y="0"/>
  <outline>
    <contour>
      <point x="41" y="0" type="line"/>
      <point x="189.364" y="698" type="line"/>
      <point x="208.364" y="698" type="line"/>
      <point x="64.2511" y="20" type="line"/>
      <point x="405.251" y="20" type="line"/>
      <point x="401" y="0" type="line"/>
    </contour>
    <contour>
      <point x="365.229" y="735" type="move" name="top"/>
    </contour>
    <contour>
      <point x="209" y="0" type="move" name="bottom"/>
    </contour>
  </outline>
</glyph>
<glyph name="O" format="1">
  <advance width="486"/>
  <unicode hex="004F"/>
    <anchor name="top" x="399.229" y="735"/>
    <anchor name="tonos" x="229.79" y="700"/>
  <outline>
    <contour>
      <point x="140.554" y="506" type="line" smooth="yes"/>
      <point x="162.234" y="608"/>
      <point x="297.765" y="714"/>
      <point x="396.765" y="714" type="qcurve" smooth="yes"/>
      <point x="494.765" y="714"/>
      <point x="579.172" y="603"/>
      <point x="558.341" y="505" type="qcurve" smooth="yes"/>
      <point x="490.323" y="185" type="line" smooth="yes"/>
      <point x="477.357" y="124"/>
      <point x="406.652" y="36"/>
      <point x="303.662" y="-11"/>
      <point x="240.662" y="-11" type="qcurve" smooth="yes"/>
      <point x="182.662" y="-11"/>
      <point x="96.0144" y="33"/>
      <point x="58.7193" y="121"/>
      <point x="72.323" y="185" type="qcurve" smooth="yes"/>
    </contour>
    <contour>
      <point x="91.1104" y="184" type="line" smooth="yes"/>
      <point x="79.8449" y="131"/>
      <point x="113.84" y="51"/>
      <point x="191.7" y="8"/>
      <point x="244.7" y="8" type="qcurve" smooth="yes"/>
      <point x="298.7" y="8"/>
      <point x="392.99" y="47"/>
      <point x="459.57" y="125"/>
      <point x="472.11" y="184" type="qcurve" smooth="yes"/>
      <point x="540.979" y="508" type="line" smooth="yes"/>
      <point x="559.471" y="595"/>
      <point x="484.302" y="693"/>
      <point x="389.302" y="693" type="qcurve" smooth="yes"/>
      <point x="295.302" y="693"/>
      <point x="177.833" y="592"/>
      <point x="159.554" y="506" type="qcurve" smooth="yes"/>
    </contour>
    <contour>
      <point x="399.229" y="735" type="move" name="top"/>
    </contour>
    <contour>
      <point x="229.79" y="700" type="move" name="tonos"/>
    </contour>
  </outline>
</glyph>
<glyph name="P" format="1">
  <advance width="502"/>
  <unicode hex="0050"/>
  <outline>
    <contour>
      <point x="438.364" y="698" type="line" smooth="yes"/>
      <point x="485.364" y="698"/>
      <point x="549.413" y="670"/>
      <point x="583.147" y="617"/>
      <point x="588.781" y="540"/>
      <point x="578.578" y="492" type="qcurve" smooth="yes"/>
      <point x="567.525" y="440"/>
      <point x="528.733" y="361"/>
      <point x="471.255" y="307"/>
      <point x="392.516" y="280"/>
      <point x="342.516" y="280" type="qcurve" smooth="yes"/>
      <point x="320.516" y="280"/>
      <point x="267.516" y="280"/>
      <point x="209.516" y="280"/>
      <point x="149.516" y="280"/>
      <point x="119.516" y="280" type="qcurve"/>
      <point x="60" y="-0" type="line"/>
      <point x="41" y="-0" type="line"/>
      <point x="189.364" y="698" type="line"/>
    </contour>
    <contour>
      <point x="123.554" y="299" type="line"/>
      <point x="167.554" y="299"/>
      <point x="248.554" y="299"/>
      <point x="318.554" y="299"/>
      <point x="345.554" y="299" type="qcurve" smooth="yes"/>
      <point x="406.554" y="299"/>
      <point x="491.907" y="343"/>
      <point x="546.399" y="430"/>
      <point x="559.578" y="492" type="qcurve" smooth="yes"/>
      <point x="572.119" y="551"/>
      <point x="555.761" y="634"/>
      <point x="493.113" y="678"/>
      <point x="435.113" y="678" type="qcurve" smooth="yes"/>
      <point x="204.113" y="678" type="line"/>
    </contour>
  </outline>
</glyph>
<glyph name="Q" format="1">
  <advance width="486"/>
  <unicode hex="0051"/>
  <outline>
    <contour>
      <point x="258.14" y="43" type="line" smooth="yes"/>
      <point x="249.425" y="2"/>
      <point x="269.16" y="-51"/>
      <point x="326.846" y="-76"/>
      <point x="374.846" y="-76" type="qcurve"/>
      <point x="368.595" y="-96" type="line"/>
      <point x="314.595" y="-96"/>
      <point x="249.971" y="-66"/>
      <point x="228.15" y="-4"/>
      <point x="238.14" y="43" type="qcurve" smooth="yes"/>
      <point x="265.772" y="173" type="line"/>
      <point x="285.772" y="173" type="line"/>
    </contour>
    <component base="O"/>
  </outline>
</glyph>
<glyph name="R" format="1">
  <advance width="507"/>
  <unicode hex="0052"/>
    <anchor name="top" x="409.229" y="735"/>
    <anchor name="bottom" x="253" y="0"/>
  <outline>
    <contour>
      <point x="438.364" y="698" type="line" smooth="yes"/>
      <point x="485.364" y="698"/>
      <point x="549.413" y="670"/>
      <point x="583.147" y="617"/>
      <point x="588.781" y="540"/>
      <point x="578.578" y="492" type="qcurve" smooth="yes"/>
      <point x="559.873" y="404"/>
      <point x="472.554" y="299"/>
      <point x="398.579" y="285" type="qcurve"/>
      <point x="474" y="0" type="line"/>
      <point x="454" y="0" type="line"/>
      <point x="379.154" y="283" type="line"/>
      <point x="369.941" y="282"/>
      <point x="351.516" y="280"/>
      <point x="342.516" y="280" type="qcurve" smooth="yes"/>
      <point x="119.516" y="280" type="line"/>
      <point x="60" y="0" type="line"/>
      <point x="41" y="0" type="line"/>
      <point x="189.364" y="698" type="line"/>
    </contour>
    <contour>
      <point x="345.554" y="299" type="line" smooth="yes"/>
      <point x="406.554" y="299"/>
      <point x="491.907" y="343"/>
      <point x="546.399" y="430"/>
      <point x="559.578" y="492" type="qcurve" smooth="yes"/>
      <point x="572.119" y="551"/>
      <point x="555.761" y="634"/>
      <point x="493.113" y="678"/>
      <point x="435.113" y="678" type="qcurve" smooth="yes"/>
      <point x="204.113" y="678" type="line"/>
      <point x="123.554" y="299" type="line"/>
    </contour>
    <contour>
      <point x="409.229" y="735" type="move" name="top"/>
    </contour>
    <contour>
      <point x="253" y="0" type="move" name="bottom"/>
    </contour>
  </outline>
</glyph>
<glyph name="S" format="1">
  <advance width="523"/>
  <unicode hex="0053"/>
    <anchor name="bottom" x="261" y="0"/>
    <anchor name="top" x="417.229" y="735"/>
  <outline>
    <contour>
      <point x="565.374" y="651" type="line"/>
      <point x="529.901" y="677"/>
      <point x="471.877" y="691"/>
      <point x="423.877" y="691" type="curve" smooth="yes"/>
      <point x="332.877" y="691"/>
      <point x="215.374" y="651"/>
      <point x="192.418" y="543" type="curve" smooth="yes"/>
      <point x="174.351" y="458"/>
      <point x="247.337" y="425"/>
      <point x="309.598" y="398" type="curve" smooth="yes"/>
      <point x="352.559" y="379"/>
      <point x="413.308" y="359"/>
      <point x="459.719" y="328" type="curve" smooth="yes"/>
      <point x="511.279" y="293"/>
      <point x="547.076" y="245"/>
      <point x="531.772" y="173" type="curve" smooth="yes"/>
      <point x="503.29" y="39"/>
      <point x="370.449" y="-12"/>
      <point x="254.449" y="-12" type="curve" smooth="yes"/>
      <point x="165.449" y="-12"/>
      <point x="77.8888" y="23"/>
      <point x="42.0431" y="99" type="curve"/>
      <point x="57.1687" y="109" type="line"/>
      <point x="95.5023" y="40"/>
      <point x="173.488" y="7"/>
      <point x="258.488" y="7" type="curve" smooth="yes"/>
      <point x="365.488" y="7"/>
      <point x="487.265" y="53"/>
      <point x="512.56" y="172" type="curve" smooth="yes"/>
      <point x="526.588" y="238"/>
      <point x="495.728" y="281"/>
      <point x="447.318" y="312" type="curve" smooth="yes"/>
      <point x="406.844" y="338"/>
      <point x="351.883" y="357"/>
      <point x="303.346" y="378" type="curve" smooth="yes"/>
      <point x="222.786" y="413"/>
      <point x="154.076" y="452"/>
      <point x="172.781" y="540" type="curve" smooth="yes"/>
      <point x="198.712" y="662"/>
      <point x="322.49" y="708"/>
      <point x="426.49" y="708" type="curve" smooth="yes"/>
      <point x="480.49" y="708"/>
      <point x="533.727" y="695"/>
      <point x="576.413" y="670" type="curve"/>
    </contour>
    <contour>
      <point x="261" y="0" type="move" name="bottom"/>
    </contour>
    <contour>
      <point x="417.229" y="735" type="move" name="top"/>
    </contour>
  </outline>
</glyph>
<glyph name="T" format="1">
  <advance width="408"/>
  <unicode hex="0054"/>
    <anchor name="bottom" x="204" y="0"/>
    <anchor name="top" x="360.229" y="735"/>
  <outline>
    <contour>
      <point x="354.113" y="678" type="line"/>
      <point x="210" y="0" type="line"/>
      <point x="192" y="0" type="line"/>
      <point x="335.113" y="678" type="line"/>
      <point x="146.113" y="678" type="line"/>
      <point x="150.364" y="698" type="line"/>
      <point x="552.364" y="698" type="line"/>
      <point x="548.113" y="678" type="line"/>
    </contour>
    <contour>
      <point x="204" y="0" type="move" name="bottom"/>
    </contour>
    <contour>
      <point x="360.229" y="735" type="move" name="top"/>
    </contour>
  </outline>
</glyph>
<glyph name="W" format="1">
  <advance width="727"/>
  <unicode hex="0057"/>
    <anchor name="top" x="519.229" y="735"/>
  <outline>
    <contour>
      <point x="521.364" y="698" type="line"/>
      <point x="526.439" y="35" type="line"/>
      <point x="835.364" y="698" type="line"/>
      <point x="857.364" y="698" type="line"/>
      <point x="529" y="-0" type="line"/>
      <point x="508" y="-0" type="line"/>
      <point x="501.374" y="651" type="line"/>
      <point x="218" y="-0" type="line"/>
      <point x="197" y="-0" type="line"/>
      <point x="163.364" y="698" type="line"/>
      <point x="184.364" y="698" type="line"/>
      <point x="214.652" y="36" type="line"/>
      <point x="500.364" y="698" type="line"/>
    </contour>
    <contour>
      <point x="519.229" y="735" type="move" name="top"/>
    </contour>
  </outline>
</glyph>
<glyph name="Z" format="1">
  <advance width="539"/>
  <unicode hex="005A"/>
    <anchor name="top" x="425.229" y="735"/>
  <outline>
    <contour>
      <point x="654.364" y="698" type="line"/>
      <point x="650.326" y="679" type="line"/>
      <point x="54.0386" y="19" type="line"/>
      <point x="516.039" y="19" type="line"/>
      <point x="512" y="-0" type="line"/>
      <point x="27" y="-0" type="line"/>
      <point x="31.0386" y="19" type="line"/>
      <point x="626.326" y="679" type="line"/>
      <point x="184.326" y="679" type="line"/>
      <point x="187.364" y="698" type="line"/>
    </contour>
    <contour>
      <point x="425.229" y="735" type="move" name="top"/>
    </contour>
  </outline>
</glyph>
<glyph name="grave" format="1">
  <advance width="266"/>
  <unicode hex="0060"/>
  <outline>
    <contour>
      <point x="245.529" y="727" type="qcurve"/>
      <point x="273.297" y="613" type="line"/>
      <point x="252.297" y="613" type="line"/>
      <point x="217.765" y="714" type="line" smooth="yes"/>
      <point x="216.041" y="720"/>
      <point x="219.804" y="733"/>
      <point x="226.654" y="737" type="qcurve" smooth="yes"/>
      <point x="233.292" y="740"/>
      <point x="245.017" y="734"/>
    </contour>
  </outline>
</glyph>
<glyph name="a" format="1">
  <advance width="444"/>
  <unicode hex="0061"/>
    <anchor name="top" x="337.843" y="545"/>
    <anchor name="ogonek" x="222" y="0"/>
  <outline>
    <contour>
      <point x="463.332" y="345" type="qcurve"/>
      <point x="470.771" y="380"/>
      <point x="455.1" y="438"/>
      <point x="432.138" y="457" type="qcurve" smooth="yes"/>
      <point x="413.327" y="472"/>
      <point x="354.728" y="488"/>
      <point x="303.728" y="488" type="qcurve"/>
      <point x="308.766" y="507" type="line"/>
      <point x="357.766" y="507"/>
      <point x="426.94" y="489"/>
      <point x="447.902" y="470" type="qcurve" smooth="yes"/>
      <point x="474.225" y="448"/>
      <point x="489.771" y="380"/>
      <point x="480.206" y="335" type="qcurve" smooth="yes"/>
      <point x="472.342" y="298"/>
      <point x="453.424" y="209"/>
      <point x="434.507" y="120"/>
      <point x="418.565" y="45"/>
      <point x="409" y="-0"/>
      <point x="409" y="-0" type="qcurve"/>
      <point x="409" y="-0"/>
      <point x="365.362" y="-3"/>
      <point x="301.512" y="-7"/>
      <point x="241.874" y="-10"/>
      <point x="226.874" y="-10" type="qcurve" smooth="yes"/>
      <point x="154.874" y="-10"/>
      <point x="73.3767" y="30"/>
      <point x="48.1687" y="109"/>
      <point x="60.7095" y="168" type="qcurve"/>
      <point x="60.7095" y="168"/>
      <point x="66.0234" y="193"/>
      <point x="73.0378" y="226"/>
      <point x="78.3517" y="251"/>
      <point x="78.3517" y="251" type="qcurve"/>
      <point x="83.4531" y="275"/>
      <point x="107.719" y="328"/>
      <point x="151.496" y="374"/>
      <point x="221.66" y="403"/>
      <point x="271.66" y="403" type="qcurve" smooth="yes"/>
      <point x="326.66" y="403"/>
      <point x="423.008" y="367"/>
    </contour>
    <contour>
      <point x="458.443" y="322" type="qcurve"/>
      <point x="427.269" y="340"/>
      <point x="366.221" y="368"/>
      <point x="303.409" y="383"/>
      <point x="266.409" y="383" type="qcurve" smooth="yes"/>
      <point x="215.409" y="383"/>
      <point x="144.757" y="347"/>
      <point x="103.791" y="286"/>
      <point x="95.9266" y="249" type="qcurve" smooth="yes"/>
      <point x="91.4629" y="228"/>
      <point x="81.0476" y="179"/>
      <point x="77.4342" y="162" type="qcurve" smooth="yes"/>
      <point x="71.6951" y="135"/>
      <point x="75.0045" y="80"/>
      <point x="104.014" y="33"/>
      <point x="172.488" y="7"/>
      <point x="230.7" y="8" type="qcurve"/>
      <point x="247.7" y="8"/>
      <point x="302.338" y="11"/>
      <point x="357.188" y="15"/>
      <point x="393.826" y="18"/>
      <point x="393.826" y="18" type="qcurve"/>
      <point x="393.826" y="18"/>
      <point x="403.179" y="62"/>
      <point x="417.845" y="131"/>
      <point x="434.424" y="209"/>
      <point x="449.091" y="278"/>
    </contour>
    <contour>
      <point x="337.843" y="545" type="move" name="top"/>
    </contour>
    <contour>
      <point x="222" y="0" type="move" name="ogonek"/>
    </contour>
  </outline>
</glyph>
<glyph name="d" format="1">
  <advance width="455"/>
  <unicode hex="0064"/>
    <anchor name="top" x="383.229" y="735"/>
  <outline>
    <contour>
      <point x="411.787" y="-1" type="line"/>
      <point x="411.787" y="-1"/>
      <point x="368.15" y="-4"/>
      <point x="304.3" y="-8"/>
      <point x="245.662" y="-11"/>
      <point x="230.662" y="-11" type="qcurve" smooth="yes"/>
      <point x="157.662" y="-11"/>
      <point x="76.1641" y="29"/>
      <point x="51.1687" y="109"/>
      <point x="63.7095" y="168" type="qcurve" smooth="yes"/>
      <point x="104.095" y="358" type="line" smooth="yes"/>
      <point x="110.897" y="390"/>
      <point x="159.563" y="459"/>
      <point x="247.979" y="508"/>
      <point x="314.979" y="508" type="qcurve" smooth="yes"/>
      <point x="369.979" y="508"/>
      <point x="457.515" y="487"/>
      <point x="492.902" y="470" type="qcurve"/>
      <point x="541.364" y="698" type="line"/>
      <point x="560.364" y="698" type="line"/>
    </contour>
    <contour>
      <point x="488.65" y="450" type="line"/>
      <point x="453.476" y="468"/>
      <point x="365.365" y="491"/>
      <point x="309.365" y="491" type="qcurve" smooth="yes"/>
      <point x="258.365" y="491"/>
      <point x="180.501" y="454"/>
      <point x="131.322" y="392"/>
      <point x="123.245" y="354" type="qcurve" smooth="yes"/>
      <point x="82.2216" y="161" type="line" smooth="yes"/>
      <point x="76.4826" y="134"/>
      <point x="78.792" y="79"/>
      <point x="109.014" y="33"/>
      <point x="176.275" y="6"/>
      <point x="235.488" y="7" type="qcurve"/>
      <point x="252.488" y="7"/>
      <point x="306.338" y="11"/>
      <point x="360.188" y="15"/>
      <point x="396.826" y="18"/>
      <point x="396.826" y="18" type="qcurve"/>
    </contour>
    <contour>
      <point x="383.229" y="735" type="move" name="top"/>
    </contour>
  </outline>
</glyph>
<glyph name="e" format="1">
  <advance width="419"/>
  <unicode hex="0065"/>
    <anchor name="top" x="324.843" y="545"/>
    <anchor name="ogonek" x="208" y="0"/>
  <outline>
    <contour>
      <point x="77.0575" y="132" type="line" smooth="yes"/>
      <point x="70.0431" y="99"/>
      <point x="80.8404" y="51"/>
      <point x="99.4395" y="35" type="qcurve" smooth="yes"/>
      <point x="112.314" y="25"/>
      <point x="142.551" y="12"/>
      <point x="180.488" y="7"/>
      <point x="203.488" y="7" type="qcurve" smooth="yes"/>
      <point x="244.488" y="7"/>
      <point x="318.952" y="28"/>
      <point x="367.053" y="52" type="qcurve"/>
      <point x="371.439" y="35" type="line"/>
      <point x="329.551" y="12"/>
      <point x="243.449" y="-12"/>
      <point x="201.449" y="-12" type="qcurve" smooth="yes"/>
      <point x="175.449" y="-12"/>
      <point x="131.937" y="-5"/>
      <point x="97.913" y="9"/>
      <point x="86.0386" y="19" type="qcurve" smooth="yes"/>
      <point x="64.652" y="36"/>
      <point x="49.7678" y="93"/>
      <point x="58.27" y="133" type="qcurve" smooth="yes"/>
      <point x="101.844" y="338" type="line" smooth="yes"/>
      <point x="110.559" y="379"/>
      <point x="150.95" y="442"/>
      <point x="179.414" y="463" type="qcurve" smooth="yes"/>
      <point x="236.979" y="508"/>
      <point x="321.979" y="508" type="qcurve" smooth="yes"/>
      <point x="390.979" y="508"/>
      <point x="430.177" y="476" type="qcurve" smooth="yes"/>
      <point x="481.824" y="432"/>
      <point x="462.482" y="341" type="qcurve" smooth="yes"/>
      <point x="442.289" y="246" type="line"/>
      <point x="97.6755" y="229" type="line"/>
    </contour>
    <contour>
      <point x="442.694" y="342" type="qcurve" smooth="yes"/>
      <point x="452.259" y="387"/>
      <point x="434.588" y="445"/>
      <point x="414.989" y="461" type="qcurve" smooth="yes"/>
      <point x="395.602" y="478"/>
      <point x="342.365" y="491"/>
      <point x="314.365" y="491" type="qcurve" smooth="yes"/>
      <point x="286.365" y="491"/>
      <point x="219.964" y="475"/>
      <point x="190.076" y="452" type="qcurve" smooth="yes"/>
      <point x="166.25" y="434"/>
      <point x="128.921" y="376"/>
      <point x="119.569" y="332" type="qcurve" smooth="yes"/>
      <point x="116.168" y="316"/>
      <point x="104.902" y="263"/>
      <point x="101.714" y="248" type="qcurve"/>
      <point x="426.115" y="264" type="line"/>
      <point x="429.091" y="278"/>
      <point x="439.506" y="327"/>
    </contour>
    <contour>
      <point x="324.843" y="545" type="move" name="top"/>
    </contour>
    <contour>
      <point x="208" y="0" type="move" name="ogonek"/>
    </contour>
  </outline>
</glyph>
<glyph name="g" format="1">
  <advance width="437"/>
  <unicode hex="0067"/>
    <anchor name="top" x="333.843" y="545"/>
  <outline>
    <contour>
      <point x="384.396" y="-64" type="line" smooth="yes"/>
      <point x="371.643" y="-124"/>
      <point x="306.189" y="-192"/>
      <point x="245.363" y="-210" type="qcurve"/>
      <point x="242.977" y="-193" type="line"/>
      <point x="260.464" y="-186"/>
      <point x="309.141" y="-164"/>
      <point x="353.981" y="-113"/>
      <point x="364.609" y="-63" type="qcurve" smooth="yes"/>
      <point x="395.005" y="80" type="line"/>
      <point x="377.84" y="51"/>
      <point x="308.126" y="10"/>
      <point x="231.449" y="-12"/>
      <point x="200.449" y="-12" type="qcurve" smooth="yes"/>
      <point x="117.449" y="-12"/>
      <point x="46.8548" y="84"/>
      <point x="66.1974" y="175" type="qcurve" smooth="yes"/>
      <point x="102.119" y="344" type="line" smooth="yes"/>
      <point x="119.124" y="424"/>
      <point x="230.829" y="512"/>
      <point x="311.979" y="508" type="qcurve" smooth="yes"/>
      <point x="335.766" y="507"/>
      <point x="395.003" y="494"/>
      <point x="452.689" y="469"/>
      <point x="473.863" y="451" type="qcurve"/>
      <point x="483.853" y="498" type="line"/>
      <point x="503.853" y="498" type="line"/>
    </contour>
    <contour>
      <point x="468.549" y="426" type="line"/>
      <point x="452.225" y="448"/>
      <point x="390.389" y="477"/>
      <point x="321.153" y="490"/>
      <point x="291.728" y="488" type="qcurve"/>
      <point x="255.515" y="487"/>
      <point x="186.776" y="460"/>
      <point x="133.598" y="398"/>
      <point x="122.545" y="346" type="qcurve" smooth="yes"/>
      <point x="84.7095" y="168" type="line" smooth="yes"/>
      <point x="68.5552" y="92"/>
      <point x="126.338" y="11"/>
      <point x="189.7" y="8" type="qcurve"/>
      <point x="233.063" y="5"/>
      <point x="327.439" y="35"/>
      <point x="399.043" y="99"/>
      <point x="409.246" y="147" type="qcurve" smooth="yes"/>
    </contour>
    <contour>
      <point x="333.843" y="545" type="move" name="top"/>
    </contour>
  </outline>
</glyph>
<glyph name="k" format="1">
  <advance width="424"/>
  <unicode hex="006B"/>
    <anchor name="bottom" x="212" y="0"/>
  <outline>
    <contour>
      <point x="253.346" y="378" type="line"/>
      <point x="287.854" y="291"/>
      <point x="364.468" y="101"/>
      <point x="407" y="0" type="qcurve"/>
      <point x="384" y="0" type="line"/>
      <point x="236.583" y="365" type="line"/>
      <point x="119.666" y="276" type="line"/>
      <point x="61" y="0" type="line"/>
      <point x="41" y="0" type="line"/>
      <point x="189.364" y="698" type="line"/>
      <point x="209.364" y="698" type="line"/>
      <point x="124.767" y="300" type="line"/>
      <point x="407.104" y="518" type="line"/>
      <point x="417.554" y="506" type="line"/>
    </contour>
    <contour>
      <point x="212" y="0" type="move" name="bottom"/>
    </contour>
  </outline>
</glyph>
<glyph name="m" format="1">
  <advance width="715"/>
  <unicode hex="006D"/>
  <outline>
    <contour>
      <point x="735.119" y="344" type="line" smooth="yes"/>
      <point x="747.235" y="401"/>
      <point x="726.476" y="468"/>
      <point x="661.428" y="496"/>
      <point x="606.578" y="492" type="qcurve" smooth="yes"/>
      <point x="563.728" y="488"/>
      <point x="478.351" y="458"/>
      <point x="444.737" y="441" type="qcurve"/>
      <point x="448.911" y="423"/>
      <point x="449.709" y="375"/>
      <point x="442.907" y="343" type="qcurve" smooth="yes"/>
      <point x="370" y="-0" type="line"/>
      <point x="350" y="-0" type="line"/>
      <point x="423.119" y="344" type="line" smooth="yes"/>
      <point x="435.235" y="401"/>
      <point x="414.476" y="468"/>
      <point x="349.428" y="496"/>
      <point x="295.578" y="492" type="qcurve" smooth="yes"/>
      <point x="249.728" y="488"/>
      <point x="183.839" y="465"/>
      <point x="152.863" y="451" type="qcurve"/>
      <point x="57" y="-0" type="line"/>
      <point x="38" y="-0" type="line"/>
      <point x="143.853" y="498" type="line"/>
      <point x="162.853" y="498" type="line"/>
      <point x="156.902" y="470" type="line"/>
      <point x="182.452" y="482"/>
      <point x="255.129" y="504"/>
      <point x="293.766" y="507" type="qcurve" smooth="yes"/>
      <point x="339.616" y="511"/>
      <point x="421.79" y="493"/>
      <point x="438.501" y="454" type="qcurve"/>
      <point x="471.752" y="474"/>
      <point x="568.341" y="505"/>
      <point x="605.766" y="507" type="qcurve"/>
      <point x="638.404" y="510"/>
      <point x="700.703" y="502"/>
      <point x="746.902" y="470"/>
      <point x="764.448" y="402"/>
      <point x="751.907" y="343" type="qcurve" smooth="yes"/>
      <point x="679" y="-0" type="line"/>
      <point x="662" y="-0" type="line"/>
    </contour>
  </outline>
</glyph>
<glyph name="n" format="1">
  <advance width="442"/>
  <unicode hex="006E"/>
    <anchor name="top" x="336.843" y="545"/>
    <anchor name="bottom" x="221" y="0"/>
  <outline>
    <contour>
      <point x="461.332" y="345" type="line" smooth="yes"/>
      <point x="473.448" y="402"/>
      <point x="446.689" y="469"/>
      <point x="375.428" y="496"/>
      <point x="320.79" y="493" type="qcurve" smooth="yes"/>
      <point x="277.365" y="491"/>
      <point x="184.051" y="466"/>
      <point x="153.076" y="452" type="qcurve"/>
      <point x="57" y="0" type="line"/>
      <point x="38" y="0" type="line"/>
      <point x="144.066" y="499" type="line"/>
      <point x="163.066" y="499" type="line"/>
      <point x="157.114" y="471" type="line"/>
      <point x="183.452" y="482"/>
      <point x="271.554" y="506"/>
      <point x="310.979" y="508" type="qcurve" smooth="yes"/>
      <point x="344.404" y="510"/>
      <point x="412.916" y="503"/>
      <point x="468.114" y="471"/>
      <point x="491.66" y="403"/>
      <point x="479.119" y="344" type="qcurve" smooth="yes"/>
      <point x="406" y="0" type="line"/>
      <point x="388" y="0" type="line"/>
    </contour>
    <contour>
      <point x="336.843" y="545" type="move" name="top"/>
    </contour>
    <contour>
      <point x="221" y="0" type="move" name="bottom"/>
    </contour>
  </outline>
</glyph>
<glyph name="q" format="1">
  <advance width="436"/>
  <unicode hex="0071"/>
  <outline>
    <contour>
      <point x="395.217" y="81" type="line"/>
      <point x="370.203" y="48"/>
      <point x="302.488" y="7"/>
      <point x="231.662" y="-11"/>
      <point x="200.662" y="-11" type="qcurve" smooth="yes"/>
      <point x="117.662" y="-11"/>
      <point x="47.0673" y="85"/>
      <point x="66.41" y="176" type="qcurve" smooth="yes"/>
      <point x="102.332" y="345" type="line" smooth="yes"/>
      <point x="119.124" y="424"/>
      <point x="231.042" y="513"/>
      <point x="312.191" y="509" type="qcurve" smooth="yes"/>
      <point x="335.979" y="508"/>
      <point x="395.215" y="495"/>
      <point x="452.902" y="470"/>
      <point x="473.863" y="451" type="qcurve"/>
      <point x="483.853" y="498" type="line"/>
      <point x="502.853" y="498" type="line"/>
      <point x="352.151" y="-211" type="line"/>
      <point x="334.001" y="-207" type="line"/>
    </contour>
    <contour>
      <point x="468.762" y="427" type="line"/>
      <point x="456.163" y="443"/>
      <point x="393.752" y="474"/>
      <point x="322.003" y="494"/>
      <point x="292.79" y="493" type="qcurve" smooth="yes"/>
      <point x="256.578" y="492"/>
      <point x="187.414" y="463"/>
      <point x="134.023" y="400"/>
      <point x="122.97" y="348" type="qcurve" smooth="yes"/>
      <point x="84.9221" y="169" type="line" smooth="yes"/>
      <point x="68.7678" y="93"/>
      <point x="125.913" y="9"/>
      <point x="188.85" y="4" type="qcurve"/>
      <point x="218.638" y="3"/>
      <point x="288.251" y="20"/>
      <point x="353.903" y="56"/>
      <point x="401.806" y="112"/>
      <point x="409.458" y="148" type="qcurve" smooth="yes"/>
    </contour>
  </outline>
</glyph>
<glyph name="r" format="1">
  <advance width="329"/>
  <unicode hex="0072"/>
    <anchor name="top" x="279.843" y="545"/>
    <anchor name="bottom" x="164" y="0"/>
  <outline>
    <contour>
      <point x="412.153" y="490" type="line"/>
      <point x="401.578" y="492"/>
      <point x="378.003" y="494"/>
      <point x="367.003" y="494" type="qcurve" smooth="yes"/>
      <point x="342.003" y="494"/>
      <point x="282.24" y="481"/>
      <point x="202.501" y="454"/>
      <point x="148.824" y="432" type="qcurve"/>
      <point x="57" y="0" type="line"/>
      <point x="38" y="0" type="line"/>
      <point x="144.066" y="499" type="line"/>
      <point x="163.066" y="499" type="line"/>
      <point x="153.288" y="453" type="line"/>
      <point x="220.815" y="479"/>
      <point x="330.042" y="513"/>
      <point x="373.042" y="513" type="qcurve" smooth="yes"/>
      <point x="385.042" y="513"/>
      <point x="407.191" y="509"/>
      <point x="416.554" y="506" type="qcurve"/>
    </contour>
    <contour>
      <point x="279.843" y="545" type="move" name="top"/>
    </contour>
    <contour>
      <point x="164" y="0" type="move" name="bottom"/>
    </contour>
  </outline>
</glyph>
<glyph name="s" format="1">
  <advance width="405"/>
  <unicode hex="0073"/>
    <anchor name="bottom" x="202" y="0"/>
    <anchor name="top" x="317.843" y="545"/>
  <outline>
    <contour>
      <point x="420.776" y="460" type="line"/>
      <point x="420.776" y="460"/>
      <point x="395.177" y="476"/>
      <point x="347.578" y="492"/>
      <point x="312.578" y="492" type="qcurve" smooth="yes"/>
      <point x="290.578" y="492"/>
      <point x="240.24" y="481"/>
      <point x="216.902" y="470" type="qcurve"/>
      <point x="195.351" y="458"/>
      <point x="160.486" y="421"/>
      <point x="152.747" y="394" type="qcurve" smooth="yes"/>
      <point x="146.221" y="368"/>
      <point x="158.144" y="330"/>
      <point x="178.955" y="315" type="qcurve" smooth="yes"/>
      <point x="195.192" y="302"/>
      <point x="244.303" y="279"/>
      <point x="277.54" y="266" type="qcurve" smooth="yes"/>
      <point x="315.352" y="251"/>
      <point x="365.4" y="223"/>
      <point x="379.212" y="208" type="qcurve" smooth="yes"/>
      <point x="400.536" y="186"/>
      <point x="407.545" y="139"/>
      <point x="401.019" y="113" type="qcurve" smooth="yes"/>
      <point x="395.343" y="91"/>
      <point x="364.778" y="46"/>
      <point x="340.526" y="26" type="qcurve"/>
      <point x="314.488" y="7"/>
      <point x="244.812" y="-15"/>
      <point x="198.812" y="-15" type="qcurve" smooth="yes"/>
      <point x="168.812" y="-15"/>
      <point x="121.937" y="-5"/>
      <point x="103.85" y="4" type="qcurve" smooth="yes"/>
      <point x="80.6135" y="17"/>
      <point x="49.6278" y="50"/>
      <point x="39.4538" y="68" type="qcurve"/>
      <point x="55.2171" y="81" type="line"/>
      <point x="63.8162" y="65"/>
      <point x="91.0144" y="33"/>
      <point x="112.676" y="22" type="qcurve" smooth="yes"/>
      <point x="130.763" y="13"/>
      <point x="174.425" y="2"/>
      <point x="202.425" y="2" type="qcurve" smooth="yes"/>
      <point x="246.425" y="2"/>
      <point x="312.526" y="26"/>
      <point x="334.14" y="43" type="qcurve" smooth="yes"/>
      <point x="354.541" y="59"/>
      <point x="377.405" y="96"/>
      <point x="382.231" y="114" type="qcurve" smooth="yes"/>
      <point x="388.908" y="136"/>
      <point x="382.197" y="175"/>
      <point x="365.236" y="194" type="qcurve" smooth="yes"/>
      <point x="352.212" y="208"/>
      <point x="303.951" y="235"/>
      <point x="267.927" y="249" type="qcurve" smooth="yes"/>
      <point x="235.477" y="261"/>
      <point x="181.579" y="285"/>
      <point x="161.767" y="300" type="qcurve"/>
      <point x="142.38" y="317"/>
      <point x="126.158" y="363"/>
      <point x="133.96" y="395" type="qcurve" smooth="yes"/>
      <point x="142.549" y="426"/>
      <point x="180.689" y="469"/>
      <point x="205.665" y="483" type="qcurve" smooth="yes"/>
      <point x="231.641" y="497"/>
      <point x="290.404" y="510"/>
      <point x="316.404" y="510" type="qcurve" smooth="yes"/>
      <point x="354.404" y="510"/>
      <point x="405.578" y="492"/>
      <point x="433.964" y="475"/>
      <point x="434.752" y="474" type="qcurve"/>
    </contour>
    <contour>
      <point x="202" y="0" type="move" name="bottom"/>
    </contour>
    <contour>
      <point x="317.843" y="545" type="move" name="top"/>
    </contour>
  </outline>
</glyph>
<glyph name="t" format="1">
  <advance width="238"/>
  <unicode hex="0074"/>
    <anchor name="bottom" x="119" y="0"/>
    <anchor name="top" x="275.229" y="735"/>
  <outline>
    <contour>
      <point x="87.0575" y="132" type="line" smooth="yes"/>
      <point x="75.3669" y="77"/>
      <point x="105.464" y="21"/>
      <point x="151.85" y="4" type="qcurve"/>
      <point x="141.237" y="-13" type="line"/>
      <point x="89.6377" y="3"/>
      <point x="54.5166" y="73"/>
      <point x="67.0575" y="132" type="qcurve" smooth="yes"/>
      <point x="187.364" y="698" type="line"/>
      <point x="207.364" y="698" type="line"/>
      <point x="165.066" y="499" type="line"/>
      <point x="321.066" y="499" type="line"/>
      <point x="308.24" y="481" type="line"/>
      <point x="161.24" y="481" type="line"/>
    </contour>
    <contour>
      <point x="119" y="0" type="move" name="bottom"/>
    </contour>
    <contour>
      <point x="275.229" y="735" type="move" name="top"/>
    </contour>
  </outline>
</glyph>
<glyph name="u" format="1">
  <advance width="443"/>
  <unicode hex="0075"/>
    <anchor name="top" x="336.843" y="545"/>
    <anchor name="ogonek" x="220" y="0"/>
  <outline>
    <contour>
      <point x="403.618" y="97" type="line"/>
      <point x="373.778" y="46"/>
      <point x="272.937" y="-5"/>
      <point x="226.087" y="-9" type="qcurve"/>
      <point x="197.874" y="-10"/>
      <point x="133.362" y="-3"/>
      <point x="79.3767" y="30"/>
      <point x="54.8305" y="98"/>
      <point x="67.1588" y="156" type="qcurve" smooth="yes"/>
      <point x="140.066" y="499" type="line"/>
      <point x="160.066" y="499" type="line"/>
      <point x="86.9463" y="155" type="line" smooth="yes"/>
      <point x="75.0431" y="99"/>
      <point x="102.802" y="32"/>
      <point x="175.063" y="5"/>
      <point x="229.913" y="9" type="qcurve" smooth="yes"/>
      <point x="278.551" y="12"/>
      <point x="358.116" y="57"/>
      <point x="410.207" y="128"/>
      <point x="418.71" y="168" type="qcurve" smooth="yes"/>
      <point x="489.066" y="499" type="line"/>
      <point x="510.066" y="499" type="line"/>
      <point x="404" y="-0" type="line"/>
      <point x="383" y="-0" type="line"/>
    </contour>
    <contour>
      <point x="336.843" y="545" type="move" name="top"/>
    </contour>
    <contour>
      <point x="220" y="0" type="move" name="ogonek"/>
    </contour>
  </outline>
</glyph>
<glyph name="x" format="1">
  <advance width="390"/>
  <unicode hex="0078"/>
  <outline>
    <contour>
      <point x="254.115" y="264" type="line"/>
      <point x="445.853" y="498" type="line"/>
      <point x="467.853" y="498" type="line"/>
      <point x="261.927" y="249" type="line"/>
      <point x="359" y="-0" type="line"/>
      <point x="338" y="-0" type="line"/>
      <point x="247.526" y="233" type="line"/>
      <point x="51" y="-0" type="line"/>
      <point x="29" y="-0" type="line"/>
      <point x="240.139" y="250" type="line"/>
      <point x="141.853" y="498" type="line"/>
      <point x="164.853" y="498" type="line"/>
    </contour>
  </outline>
</glyph>
<glyph name="y" format="1">
  <advance width="459"/>
  <unicode hex="0079"/>
    <anchor name="top" x="344.843" y="545"/>
  <outline>
    <contour>
      <point x="535.066" y="499" type="line"/>
      <point x="516.302" y="486"/>
      <point x="498.65" y="450"/>
      <point x="491.636" y="417" type="qcurve" smooth="yes"/>
      <point x="388.759" y="-67" type="line" smooth="yes"/>
      <point x="381.319" y="-102"/>
      <point x="354.054" y="-155"/>
      <point x="331.015" y="-174" type="qcurve" smooth="yes"/>
      <point x="315.464" y="-186"/>
      <point x="277.638" y="-204"/>
      <point x="252.938" y="-212" type="qcurve"/>
      <point x="250.551" y="-195" type="line"/>
      <point x="275.464" y="-186"/>
      <point x="300.228" y="-173"/>
      <point x="319.991" y="-160" type="qcurve" smooth="yes"/>
      <point x="357.73" y="-133"/>
      <point x="371.971" y="-66" type="qcurve" smooth="yes"/>
      <point x="407.043" y="99" type="line"/>
      <point x="376.99" y="47"/>
      <point x="275.15" y="-4"/>
      <point x="227.3" y="-8" type="qcurve"/>
      <point x="199.087" y="-9"/>
      <point x="133.575" y="-2"/>
      <point x="79.5893" y="31"/>
      <point x="55.0431" y="99"/>
      <point x="67.3714" y="157" type="qcurve" smooth="yes"/>
      <point x="140.066" y="499" type="line"/>
      <point x="160.066" y="499" type="line"/>
      <point x="87.1588" y="156" type="line" smooth="yes"/>
      <point x="75.2557" y="100"/>
      <point x="103.014" y="33"/>
      <point x="176.275" y="6"/>
      <point x="230.126" y="10" type="qcurve" smooth="yes"/>
      <point x="278.763" y="13"/>
      <point x="359.328" y="58"/>
      <point x="413.42" y="129"/>
      <point x="421.922" y="169" type="qcurve" smooth="yes"/>
      <point x="474.849" y="418" type="line" smooth="yes"/>
      <point x="479.95" y="442"/>
      <point x="491.539" y="473"/>
      <point x="509.853" y="498"/>
      <point x="524.404" y="510" type="qcurve"/>
    </contour>
    <contour>
      <point x="344.843" y="545" type="move" name="top"/>
    </contour>
  </outline>
</glyph>
<glyph name="braceleft" format="1">
  <advance width="235"/>
  <unicode hex="007B"/>
  <outline>
    <contour>
      <point x="233.467" y="515" type="line" smooth="yes"/>
      <point x="224.539" y="473"/>
      <point x="186.11" y="391"/>
      <point x="130.82" y="352" type="qcurve"/>
      <point x="169.53" y="313"/>
      <point x="173.101" y="231"/>
      <point x="164.173" y="189" type="qcurve" smooth="yes"/>
      <point x="140.154" y="76" type="line" smooth="yes"/>
      <point x="128.676" y="22"/>
      <point x="142.01" y="-47"/>
      <point x="171.358" y="-83"/>
      <point x="198.169" y="-98"/>
      <point x="199.169" y="-98" type="qcurve"/>
      <point x="191.131" y="-117" type="line"/>
      <point x="190.131" y="-117"/>
      <point x="159.532" y="-101"/>
      <point x="125.247" y="-60"/>
      <point x="109.401" y="16"/>
      <point x="122.154" y="76" type="qcurve" smooth="yes"/>
      <point x="146.173" y="189" type="line" smooth="yes"/>
      <point x="155.101" y="231"/>
      <point x="149.255" y="307"/>
      <point x="110.119" y="344" type="qcurve" smooth="yes"/>
      <point x="100.82" y="352" type="line"/>
      <point x="113.52" y="360" type="line" smooth="yes"/>
      <point x="168.172" y="396"/>
      <point x="206.539" y="473"/>
      <point x="215.467" y="515" type="qcurve" smooth="yes"/>
      <point x="239.486" y="628" type="line" smooth="yes"/>
      <point x="252.239" y="688"/>
      <point x="300.181" y="763"/>
      <point x="351.895" y="804"/>
      <point x="389.084" y="819"/>
      <point x="390.296" y="820" type="qcurve"/>
      <point x="389.258" y="801" type="line"/>
      <point x="388.258" y="801"/>
      <point x="356.282" y="787"/>
      <point x="311.417" y="750"/>
      <point x="268.964" y="682"/>
      <point x="257.486" y="628" type="qcurve" smooth="yes"/>
    </contour>
  </outline>
</glyph>
<glyph name="dieresis" format="1">
  <advance width="266"/>
  <unicode hex="00A8"/>
  <outline>
    <contour>
      <point x="207.891" y="724" type="qcurve" smooth="yes"/>
      <point x="215.891" y="724"/>
      <point x="222.765" y="714"/>
      <point x="221.065" y="706" type="qcurve" smooth="yes"/>
      <point x="219.577" y="699"/>
      <point x="208.664" y="690"/>
      <point x="200.664" y="690" type="qcurve" smooth="yes"/>
      <point x="193.664" y="690"/>
      <point x="185.577" y="699"/>
      <point x="187.065" y="706" type="qcurve" smooth="yes"/>
      <point x="188.765" y="714"/>
      <point x="200.891" y="724"/>
    </contour>
    <contour>
      <point x="365.891" y="724" type="qcurve" smooth="yes"/>
      <point x="372.891" y="724"/>
      <point x="380.765" y="714"/>
      <point x="379.065" y="706" type="qcurve" smooth="yes"/>
      <point x="377.577" y="699"/>
      <point x="365.664" y="690"/>
      <point x="358.664" y="690" type="qcurve" smooth="yes"/>
      <point x="351.664" y="690"/>
      <point x="344.577" y="699"/>
      <point x="346.065" y="706" type="qcurve" smooth="yes"/>
      <point x="347.765" y="714"/>
      <point x="358.891" y="724"/>
    </contour>
  </outline>
</glyph>
<glyph name="ordfeminine" format="1">
  <advance width="325"/>
  <unicode hex="00AA"/>
  <outline>
    <contour>
      <point x="372.685" y="389" type="qcurve"/>
      <point x="336.834" y="385"/>
      <point x="286.771" y="380"/>
      <point x="270.346" y="378" type="qcurve"/>
      <point x="214.134" y="377"/>
      <point x="152.235" y="401"/>
      <point x="127.163" y="443"/>
      <point x="126.578" y="492"/>
      <point x="131.467" y="515" type="qcurve" smooth="yes"/>
      <point x="136.781" y="540"/>
      <point x="166.833" y="592"/>
      <point x="217.486" y="628"/>
      <point x="253.486" y="628" type="qcurve" smooth="yes"/>
      <point x="287.486" y="628"/>
      <point x="357.109" y="598"/>
      <point x="392.732" y="568" type="qcurve"/>
      <point x="399.321" y="599"/>
      <point x="393.886" y="644"/>
      <point x="381.862" y="658" type="qcurve" smooth="yes"/>
      <point x="367.476" y="675"/>
      <point x="311.664" y="690"/>
      <point x="269.877" y="691" type="qcurve"/>
      <point x="276.277" y="707" type="line"/>
      <point x="323.277" y="707"/>
      <point x="385.239" y="688"/>
      <point x="398.2" y="669" type="qcurve" smooth="yes"/>
      <point x="411.374" y="651"/>
      <point x="416.046" y="593"/>
      <point x="407.544" y="553" type="qcurve"/>
      <point x="407.544" y="553"/>
      <point x="400.529" y="520"/>
      <point x="390.327" y="472"/>
      <point x="379.911" y="423"/>
      <point x="372.897" y="390"/>
    </contour>
    <contour>
      <point x="387.268" y="547" type="line"/>
      <point x="351.07" y="579"/>
      <point x="283.085" y="612"/>
      <point x="251.085" y="612" type="qcurve" smooth="yes"/>
      <point x="219.085" y="612"/>
      <point x="176.645" y="577"/>
      <point x="153.868" y="531"/>
      <point x="149.829" y="512" type="qcurve" smooth="yes"/>
      <point x="142.815" y="479"/>
      <point x="150.612" y="431"/>
      <point x="174.998" y="414" type="qcurve" smooth="yes"/>
      <point x="188.085" y="405"/>
      <point x="228.172" y="396"/>
      <point x="279.172" y="396"/>
      <point x="332.235" y="401"/>
      <point x="356.873" y="404" type="qcurve"/>
    </contour>
  </outline>
</glyph>
<glyph name="overscore" format="1">
  <advance width="266"/>
  <unicode hex="00AF"/>
  <outline>
    <contour>
      <point x="529.951" y="675" type="line"/>
      <point x="521.874" y="656" type="line"/>
      <point x="301.874" y="656" type="line"/>
      <point x="309.951" y="675" type="line"/>
    </contour>
  </outline>
</glyph>
<glyph name="plusminus" format="1">
  <advance width="380"/>
  <unicode hex="00B1"/>
  <outline>
    <contour>
      <point x="114.172" y="396" type="line"/>
      <point x="117.998" y="414" type="line"/>
      <point x="267.998" y="414" type="line"/>
      <point x="299.669" y="563" type="line"/>
      <point x="318.669" y="563" type="line"/>
      <point x="286.998" y="414" type="line"/>
      <point x="436.998" y="414" type="line"/>
      <point x="433.172" y="396" type="line"/>
      <point x="283.172" y="396" type="line"/>
      <point x="251.289" y="246" type="line"/>
      <point x="400.289" y="246" type="line"/>
      <point x="396.038" y="226" type="line"/>
      <point x="77.0378" y="226" type="line"/>
      <point x="81.2889" y="246" type="line"/>
      <point x="232.289" y="246" type="line"/>
      <point x="264.172" y="396" type="line"/>
    </contour>
  </outline>
</glyph>
<glyph name="mu" format="1">
  <advance width="460"/>
  <unicode hex="00B5"/>
  <outline>
    <contour>
      <point x="422.879" y="70" type="line" smooth="yes"/>
      <point x="419.903" y="56"/>
      <point x="418.439" y="35"/>
      <point x="424.826" y="18"/>
      <point x="432.126" y="10" type="qcurve"/>
      <point x="418.575" y="-2" type="line"/>
      <point x="418.575" y="-2"/>
      <point x="406.126" y="10"/>
      <point x="396.865" y="37"/>
      <point x="401.541" y="59" type="qcurve"/>
      <point x="386.077" y="38"/>
      <point x="339.275" y="6"/>
      <point x="278.662" y="-11"/>
      <point x="243.662" y="-11" type="qcurve" smooth="yes"/>
      <point x="207.662" y="-11"/>
      <point x="147.488" y="7"/>
      <point x="94.7148" y="41"/>
      <point x="70.8162" y="65" type="qcurve"/>
      <point x="14.0636" y="-202" type="line"/>
      <point x="-3.51131" y="-200" type="line"/>
      <point x="145.066" y="499" type="line"/>
      <point x="163.066" y="499" type="line"/>
      <point x="76.1301" y="90" type="line"/>
      <point x="78.2799" y="86"/>
      <point x="100.541" y="59"/>
      <point x="142.952" y="28"/>
      <point x="205.063" y="5"/>
      <point x="247.063" y="5" type="qcurve" smooth="yes"/>
      <point x="315.063" y="5"/>
      <point x="404.729" y="74"/>
      <point x="417.695" y="135" type="qcurve" smooth="yes"/>
      <point x="496.341" y="505" type="line"/>
      <point x="515.979" y="508" type="line"/>
    </contour>
  </outline>
</glyph>
<glyph name="cedilla" format="1">
  <advance width="266"/>
  <unicode hex="00B8"/>
  <outline>
    <contour>
      <point x="150" y="0" type="line"/>
      <point x="113.222" y="-46" type="line"/>
      <point x="130.222" y="-46"/>
      <point x="143.222" y="-46"/>
      <point x="147.222" y="-46" type="qcurve" smooth="yes"/>
      <point x="173.222" y="-46"/>
      <point x="209.121" y="-70"/>
      <point x="224.406" y="-111"/>
      <point x="219.092" y="-136" type="qcurve" smooth="yes"/>
      <point x="209.315" y="-182"/>
      <point x="142.387" y="-224"/>
      <point x="109.962" y="-226" type="qcurve"/>
      <point x="87.9622" y="-226"/>
      <point x="55.5999" y="-223"/>
      <point x="27.8752" y="-217"/>
      <point x="11.7255" y="-213" type="qcurve"/>
      <point x="13.5757" y="-209"/>
      <point x="16.4259" y="-205"/>
      <point x="19.4887" y="-200"/>
      <point x="21.3389" y="-196" type="qcurve"/>
      <point x="21.3389" y="-196"/>
      <point x="45.851" y="-203"/>
      <point x="87.7882" y="-208"/>
      <point x="113.001" y="-207" type="qcurve" smooth="yes"/>
      <point x="122.213" y="-206"/>
      <point x="158.126" y="-197"/>
      <point x="193.503" y="-167"/>
      <point x="200.092" y="-136" type="qcurve" smooth="yes"/>
      <point x="206.469" y="-106"/>
      <point x="174.759" y="-67"/>
      <point x="142.759" y="-67" type="qcurve" smooth="yes"/>
      <point x="130.759" y="-67"/>
      <point x="101.759" y="-67"/>
      <point x="85.7587" y="-67" type="qcurve"/>
      <point x="90.2224" y="-46" type="line"/>
      <point x="129" y="0" type="line"/>
    </contour>
  </outline>
</glyph>
<glyph name="guillemotright" format="1">
  <advance width="481"/>
  <unicode hex="00BB"/>
  <outline>
    <contour>
      <point x="260.54" y="266" type="line"/>
      <point x="124.525" y="440" type="line"/>
      <point x="142.288" y="453" type="line"/>
      <point x="289.54" y="266" type="line"/>
      <point x="62.792" y="79" type="line"/>
      <point x="52.4054" y="96" type="line"/>
    </contour>
    <contour>
      <point x="479.54" y="266" type="line"/>
      <point x="343.525" y="440" type="line"/>
      <point x="362.288" y="453" type="line"/>
      <point x="508.54" y="266" type="line"/>
      <point x="282.792" y="79" type="line"/>
      <point x="271.405" y="96" type="line"/>
    </contour>
  </outline>
</glyph>
<glyph name="multiply" format="1">
  <advance width="322"/>
  <unicode hex="00D7"/>
  <outline>
    <contour>
      <point x="233.907" y="343" type="line"/>
      <point x="378.665" y="483" type="line"/>
      <point x="389.902" y="470" type="line"/>
      <point x="244.144" y="330" type="line"/>
      <point x="329.023" y="193" type="line"/>
      <point x="309.048" y="179" type="line"/>
      <point x="226.955" y="315" type="line"/>
      <point x="85.0476" y="179" type="line"/>
      <point x="73.3857" y="190" type="line"/>
      <point x="217.931" y="329" type="line"/>
      <point x="131.327" y="472" type="line"/>
      <point x="146.877" y="484" type="line"/>
    </contour>
  </outline>
</glyph>
<glyph name="Thorn" format="1">
  <advance width="397"/>
  <unicode hex="00DE"/>
  <outline>
    <contour>
      <point x="429.429" y="289" type="line" smooth="yes"/>
      <point x="413.912" y="216"/>
      <point x="335.695" y="135"/>
      <point x="282.082" y="118" type="qcurve" smooth="yes"/>
      <point x="237.318" y="105"/>
      <point x="130.531" y="106"/>
      <point x="85.2942" y="119" type="qcurve"/>
      <point x="60" y="-0" type="line"/>
      <point x="41" y="-0" type="line"/>
      <point x="189.364" y="698" type="line"/>
      <point x="208.364" y="698" type="line"/>
      <point x="186.896" y="597" type="line"/>
      <point x="231.722" y="615"/>
      <point x="324.486" y="628"/>
      <point x="362.785" y="620" type="qcurve" smooth="yes"/>
      <point x="394.297" y="613"/>
      <point x="443.22" y="575"/>
      <point x="455.206" y="542" type="qcurve" smooth="yes"/>
      <point x="464.104" y="518"/>
      <point x="465.476" y="468"/>
      <point x="460.462" y="435" type="qcurve"/>
    </contour>
    <contour>
      <point x="351.959" y="602" type="qcurve" smooth="yes"/>
      <point x="328.022" y="607"/>
      <point x="273.384" y="604"/>
      <point x="213.196" y="589"/>
      <point x="182.007" y="574" type="qcurve"/>
      <point x="89.1202" y="137" type="line"/>
      <point x="97.6951" y="135"/>
      <point x="137.995" y="127"/>
      <point x="191.144" y="123"/>
      <point x="253.207" y="128"/>
      <point x="283.12" y="137" type="qcurve" smooth="yes"/>
      <point x="340.946" y="155"/>
      <point x="398.738" y="234"/>
      <point x="410.854" y="291" type="qcurve" smooth="yes"/>
      <point x="440.187" y="429" type="line" smooth="yes"/>
      <point x="446.989" y="461"/>
      <point x="445.042" y="513"/>
      <point x="437.08" y="532" type="qcurve" smooth="yes"/>
      <point x="426.244" y="561"/>
      <point x="381.471" y="595"/>
    </contour>
  </outline>
</glyph>
<glyph name="germandbls" format="1">
  <advance width="462"/>
  <unicode hex="00DF"/>
  <outline>
    <contour>
      <point x="59" y="-0" type="line"/>
      <point x="54" y="-0"/>
      <point x="44" y="-0"/>
      <point x="39" y="-0" type="qcurve"/>
      <point x="153.993" y="541" type="line" smooth="yes"/>
      <point x="167.172" y="603"/>
      <point x="219.625" y="671"/>
      <point x="283.364" y="698"/>
      <point x="313.364" y="698" type="qcurve" smooth="yes"/>
      <point x="350.364" y="698"/>
      <point x="395.925" y="663"/>
      <point x="413.66" y="610"/>
      <point x="407.92" y="583" type="qcurve" smooth="yes"/>
      <point x="401.119" y="551"/>
      <point x="355.641" y="497"/>
      <point x="318.578" y="492" type="qcurve"/>
      <point x="316.578" y="492"/>
      <point x="312.578" y="492"/>
      <point x="309.578" y="492"/>
      <point x="307.578" y="492" type="qcurve"/>
      <point x="297.815" y="479"/>
      <point x="287.501" y="454"/>
      <point x="286.163" y="443" type="qcurve" smooth="yes"/>
      <point x="281.148" y="410"/>
      <point x="322.458" y="355"/>
      <point x="390.405" y="303"/>
      <point x="424.815" y="272" type="qcurve" smooth="yes"/>
      <point x="444.777" y="253"/>
      <point x="464.999" y="207"/>
      <point x="470.796" y="159"/>
      <point x="465.695" y="135" type="qcurve" smooth="yes"/>
      <point x="458.618" y="97"/>
      <point x="408.377" y="30"/>
      <point x="329.662" y="-11"/>
      <point x="279.662" y="-11" type="qcurve" smooth="yes"/>
      <point x="229.662" y="-11"/>
      <point x="167.763" y="13"/>
      <point x="140.652" y="36"/>
      <point x="140.652" y="36" type="qcurve"/>
      <point x="145.715" y="41"/>
      <point x="154.84" y="51"/>
      <point x="159.691" y="55" type="qcurve"/>
      <point x="159.691" y="55"/>
      <point x="185.802" y="32"/>
      <point x="237.913" y="9"/>
      <point x="276.913" y="9" type="qcurve" smooth="yes"/>
      <point x="334.913" y="9"/>
      <point x="404.84" y="51"/>
      <point x="440.594" y="111"/>
      <point x="446.12" y="137" type="qcurve" smooth="yes"/>
      <point x="455.048" y="179"/>
      <point x="433.526" y="233"/>
      <point x="391.24" y="274"/>
      <point x="366.492" y="294" type="qcurve" smooth="yes"/>
      <point x="346.105" y="311"/>
      <point x="307.119" y="344"/>
      <point x="276.771" y="380"/>
      <point x="263.486" y="421"/>
      <point x="268.8" y="446" type="qcurve" smooth="yes"/>
      <point x="271.563" y="459"/>
      <point x="284.94" y="489"/>
      <point x="296.341" y="505" type="qcurve"/>
      <point x="337.341" y="505"/>
      <point x="385.331" y="552"/>
      <point x="390.708" y="582" type="qcurve" smooth="yes"/>
      <point x="394.597" y="605"/>
      <point x="380.162" y="650"/>
      <point x="342.538" y="680"/>
      <point x="310.538" y="680" type="qcurve" smooth="yes"/>
      <point x="203.538" y="680"/>
      <point x="173.568" y="539" type="qcurve" smooth="yes"/>
    </contour>
  </outline>
</glyph>
<glyph name="ae" format="1">
  <advance width="784"/>
  <unicode hex="00E6"/>
  <outline>
    <contour>
      <point x="442.057" y="132" type="line" smooth="yes"/>
      <point x="434.831" y="98"/>
      <point x="447.628" y="50"/>
      <point x="482.464" y="21"/>
      <point x="535.488" y="7"/>
      <point x="568.488" y="7" type="qcurve" smooth="yes"/>
      <point x="609.488" y="7"/>
      <point x="683.952" y="28"/>
      <point x="732.053" y="52" type="qcurve"/>
      <point x="737.439" y="35" type="line"/>
      <point x="694.551" y="12"/>
      <point x="608.449" y="-12"/>
      <point x="566.449" y="-12" type="qcurve" smooth="yes"/>
      <point x="505.449" y="-12"/>
      <point x="432.526" y="26"/>
      <point x="422.604" y="64" type="qcurve"/>
      <point x="409" y="-0" type="line"/>
      <point x="409" y="-0"/>
      <point x="379.575" y="-2"/>
      <point x="333.937" y="-5"/>
      <point x="282.3" y="-8"/>
      <point x="238.874" y="-10"/>
      <point x="226.874" y="-10" type="qcurve" smooth="yes"/>
      <point x="154.874" y="-10"/>
      <point x="73.3767" y="30"/>
      <point x="48.1687" y="109"/>
      <point x="60.7095" y="168" type="qcurve" smooth="yes"/>
      <point x="78.3517" y="251" type="line" smooth="yes"/>
      <point x="83.4531" y="275"/>
      <point x="107.719" y="328"/>
      <point x="151.496" y="374"/>
      <point x="221.66" y="403"/>
      <point x="271.66" y="403" type="qcurve" smooth="yes"/>
      <point x="326.66" y="403"/>
      <point x="423.008" y="367"/>
      <point x="463.332" y="345" type="qcurve"/>
      <point x="472.047" y="386"/>
      <point x="450.65" y="450"/>
      <point x="375.728" y="488"/>
      <point x="303.728" y="488" type="qcurve"/>
      <point x="304.79" y="493"/>
      <point x="307.916" y="503"/>
      <point x="308.766" y="507" type="qcurve"/>
      <point x="366.766" y="507"/>
      <point x="443.027" y="480"/>
      <point x="482.974" y="428"/>
      <point x="485.11" y="391" type="qcurve"/>
      <point x="512.013" y="447"/>
      <point x="619.979" y="508"/>
      <point x="686.979" y="508" type="qcurve" smooth="yes"/>
      <point x="741.979" y="508"/>
      <point x="812.689" y="469"/>
      <point x="838.96" y="395"/>
      <point x="827.482" y="341" type="qcurve" smooth="yes"/>
      <point x="807.289" y="246" type="line"/>
      <point x="462.675" y="229" type="line"/>
    </contour>
    <contour>
      <point x="458.443" y="322" type="line"/>
      <point x="427.269" y="340"/>
      <point x="366.221" y="368"/>
      <point x="303.409" y="383"/>
      <point x="266.409" y="383" type="qcurve" smooth="yes"/>
      <point x="215.409" y="383"/>
      <point x="144.757" y="347"/>
      <point x="103.791" y="286"/>
      <point x="95.9266" y="249" type="qcurve" smooth="yes"/>
      <point x="77.4342" y="162" type="line" smooth="yes"/>
      <point x="71.6951" y="135"/>
      <point x="75.0045" y="80"/>
      <point x="104.014" y="33"/>
      <point x="172.488" y="7"/>
      <point x="230.7" y="8" type="qcurve"/>
      <point x="247.7" y="8"/>
      <point x="302.338" y="11"/>
      <point x="357.188" y="15"/>
      <point x="393.826" y="18"/>
      <point x="393.826" y="18" type="qcurve"/>
    </contour>
    <contour>
      <point x="807.694" y="342" type="line" smooth="yes"/>
      <point x="817.259" y="387"/>
      <point x="800.588" y="445"/>
      <point x="759.602" y="478"/>
      <point x="707.365" y="491"/>
      <point x="680.365" y="491" type="qcurve" smooth="yes"/>
      <point x="655.365" y="491"/>
      <point x="595.602" y="478"/>
      <point x="539.163" y="443"/>
      <point x="494.984" y="381"/>
      <point x="484.569" y="332" type="qcurve" smooth="yes"/>
      <point x="466.714" y="248" type="line"/>
      <point x="791.115" y="264" type="line"/>
    </contour>
  </outline>
</glyph>
<glyph name="divide" format="1">
  <advance width="383"/>
  <unicode hex="00F7"/>
  <outline>
    <contour>
      <point x="109.071" y="372" type="line"/>
      <point x="113.535" y="393" type="line"/>
      <point x="432.535" y="393" type="line"/>
      <point x="428.071" y="372" type="line"/>
    </contour>
    <contour>
      <point x="302.23" y="528" type="qcurve" smooth="yes"/>
      <point x="310.23" y="528"/>
      <point x="318.104" y="518"/>
      <point x="316.404" y="510" type="qcurve" smooth="yes"/>
      <point x="315.129" y="504"/>
      <point x="303.003" y="494"/>
      <point x="295.003" y="494" type="qcurve" smooth="yes"/>
      <point x="289.003" y="494"/>
      <point x="281.129" y="504"/>
      <point x="282.404" y="510" type="qcurve" smooth="yes"/>
      <point x="284.104" y="518"/>
      <point x="296.23" y="528"/>
    </contour>
    <contour>
      <point x="247.603" y="271" type="qcurve" smooth="yes"/>
      <point x="255.603" y="271"/>
      <point x="263.69" y="262"/>
      <point x="261.989" y="254" type="qcurve" smooth="yes"/>
      <point x="260.501" y="247"/>
      <point x="248.588" y="238"/>
      <point x="240.588" y="238" type="qcurve" smooth="yes"/>
      <point x="234.588" y="238"/>
      <point x="226.501" y="247"/>
      <point x="227.989" y="254" type="qcurve" smooth="yes"/>
      <point x="229.69" y="262"/>
      <point x="241.603" y="271"/>
    </contour>
  </outline>
</glyph>
<glyph name="oslash" format="1">
  <advance width="426"/>
  <unicode hex="00F8"/>
  <outline>
    <contour>
      <point x="500.346" y="585" type="line"/>
      <point x="70.9713" y="-66" type="line"/>
      <point x="49.9713" y="-66" type="line"/>
      <point x="479.346" y="585" type="line"/>
    </contour>
    <component base="o"/>
  </outline>
</glyph>
<glyph name="thorn" format="1">
  <advance width="443"/>
  <unicode hex="00FE"/>
  <outline>
    <contour>
      <point x="145.81" y="399" type="line"/>
      <point x="183.501" y="454"/>
      <point x="284.191" y="509"/>
      <point x="338.191" y="509" type="qcurve" smooth="yes"/>
      <point x="395.191" y="509"/>
      <point x="469.351" y="458"/>
      <point x="497.221" y="368"/>
      <point x="484.68" y="309" type="qcurve" smooth="yes"/>
      <point x="473.627" y="257"/>
      <point x="406.922" y="169"/>
      <point x="311.657" y="116"/>
      <point x="255.657" y="116" type="qcurve" smooth="yes"/>
      <point x="198.657" y="116"/>
      <point x="120.197" y="175"/>
      <point x="110.738" y="234" type="qcurve"/>
      <point x="61" y="-0" type="line"/>
      <point x="41" y="-0" type="line"/>
      <point x="189.364" y="698" type="line"/>
      <point x="209.364" y="698" type="line"/>
    </contour>
    <contour>
      <point x="336.79" y="493" type="qcurve"/>
      <point x="289.79" y="493"/>
      <point x="203.013" y="447"/>
      <point x="141.221" y="368"/>
      <point x="130.806" y="319" type="qcurve" smooth="yes"/>
      <point x="121.028" y="273"/>
      <point x="138.748" y="187"/>
      <point x="201.27" y="133"/>
      <point x="258.27" y="133" type="qcurve" smooth="yes"/>
      <point x="308.27" y="133"/>
      <point x="395.473" y="181"/>
      <point x="457.115" y="264"/>
      <point x="467.955" y="315" type="qcurve" smooth="yes"/>
      <point x="478.158" y="363"/>
      <point x="452.95" y="442"/>
      <point x="387.578" y="492"/>
    </contour>
  </outline>
</glyph>
<glyph name="Eng" format="1">
  <advance width="576"/>
  <unicode hex="014A"/>
  <outline>
    <contour>
      <point x="518.759" y="-67" type="line" smooth="yes"/>
      <point x="511.319" y="-102"/>
      <point x="483.054" y="-155"/>
      <point x="459.015" y="-174" type="qcurve" smooth="yes"/>
      <point x="444.464" y="-186"/>
      <point x="405.638" y="-204"/>
      <point x="380.938" y="-212" type="qcurve"/>
      <point x="379.551" y="-195" type="line"/>
      <point x="404.464" y="-186"/>
      <point x="430.228" y="-173"/>
      <point x="448.991" y="-160" type="qcurve" smooth="yes"/>
      <point x="467.967" y="-146"/>
      <point x="494.744" y="-100"/>
      <point x="501.971" y="-66" type="qcurve" smooth="yes"/>
      <point x="516.213" y="1" type="line"/>
      <point x="202.988" y="668" type="line"/>
      <point x="61" y="-0" type="line"/>
      <point x="41" y="-0" type="line"/>
      <point x="189.364" y="698" type="line"/>
      <point x="208.364" y="698" type="line"/>
      <point x="523.014" y="33" type="line"/>
      <point x="664.364" y="698" type="line"/>
      <point x="681.364" y="698" type="line"/>
    </contour>
  </outline>
</glyph>
<glyph name="tbar" format="1">
  <advance width="284"/>
  <unicode hex="0167"/>
  <outline>
    <contour>
      <point x="326.057" y="339" type="line"/>
      <point x="96.0567" y="339" type="line"/>
      <point x="99.4576" y="355" type="line"/>
      <point x="329.458" y="355" type="line"/>
    </contour>
    <contour>
      <point x="127.057" y="132" type="line" smooth="yes"/>
      <point x="115.367" y="77"/>
      <point x="145.464" y="21"/>
      <point x="191.85" y="4" type="qcurve"/>
      <point x="181.237" y="-13" type="line"/>
      <point x="129.638" y="3"/>
      <point x="94.5166" y="73"/>
      <point x="107.057" y="132" type="qcurve" smooth="yes"/>
      <point x="227.364" y="698" type="line"/>
      <point x="247.364" y="698" type="line"/>
      <point x="205.066" y="499" type="line"/>
      <point x="361.066" y="499" type="line"/>
      <point x="348.24" y="481" type="line"/>
      <point x="201.24" y="481" type="line"/>
    </contour>
  </outline>
</glyph>
<glyph name="dotlessj" format="1">
  <advance width="169"/>
  <unicode hex="0237"/>
    <anchor name="top" x="396.458" y="735"/>
  <outline>
    <contour>
      <point x="101.092" y="-68" type="line" smooth="yes"/>
      <point x="85.7882" y="-104"/>
      <point x="46.6824" y="-156"/>
      <point x="20.6052" y="-175" type="qcurve" smooth="yes"/>
      <point x="2.50385" y="-187"/>
      <point x="-40.5733" y="-206"/>
      <point x="-66.5491" y="-213" type="qcurve"/>
      <point x="-65.3222" y="-196" type="line"/>
      <point x="-38.4962" y="-187"/>
      <point x="-9.96968" y="-174"/>
      <point x="12.5568" y="-161" type="qcurve" smooth="yes"/>
      <point x="56.0348" y="-134"/>
      <point x="84.5174" y="-67" type="qcurve" smooth="yes"/>
      <point x="317.479" y="481" type="line"/>
      <point x="232.479" y="481" type="line"/>
      <point x="240.131" y="499" type="line"/>
      <point x="342.131" y="499" type="line"/>
    </contour>
    <contour>
      <point x="396.458" y="735" type="move" name="top"/>
    </contour>
  </outline>
</glyph>
<glyph name="circumflex" format="1">
  <advance width="266"/>
  <unicode hex="02C6"/>
  <outline>
    <contour>
      <point x="392.162" y="650" type="line"/>
      <point x="374.186" y="636" type="line"/>
      <point x="290.079" y="739" type="line"/>
      <point x="160.186" y="636" type="line"/>
      <point x="149.162" y="650" type="line"/>
      <point x="296.456" y="769" type="line"/>
    </contour>
  </outline>
</glyph>
<glyph name="breve" format="1">
  <advance width="266"/>
  <unicode hex="02D8"/>
  <outline>
    <contour>
      <point x="394.215" y="702" type="line"/>
      <point x="392.727" y="695" type="line" smooth="yes"/>
      <point x="386.138" y="664"/>
      <point x="345.085" y="612"/>
      <point x="287.708" y="582"/>
      <point x="256.708" y="582" type="qcurve" smooth="yes"/>
      <point x="225.708" y="582"/>
      <point x="181.085" y="612"/>
      <point x="161.138" y="664"/>
      <point x="167.727" y="695" type="qcurve" smooth="yes"/>
      <point x="169.215" y="702" type="line"/>
      <point x="191.215" y="702" type="line"/>
      <point x="189.727" y="695" type="line" smooth="yes"/>
      <point x="181.862" y="658"/>
      <point x="224.384" y="604"/>
      <point x="261.384" y="604" type="qcurve" smooth="yes"/>
      <point x="299.384" y="604"/>
      <point x="364.862" y="658"/>
      <point x="372.727" y="695" type="qcurve" smooth="yes"/>
      <point x="374.215" y="702" type="line"/>
    </contour>
  </outline>
</glyph>
<glyph name="dotaccent" format="1">
  <advance width="266"/>
  <unicode hex="02D9"/>
  <outline>
    <contour>
      <point x="288.591" y="732" type="qcurve" smooth="yes"/>
      <point x="295.591" y="732"/>
      <point x="302.466" y="722"/>
      <point x="300.765" y="714" type="qcurve" smooth="yes"/>
      <point x="299.277" y="707"/>
      <point x="288.152" y="697"/>
      <point x="281.152" y="697" type="qcurve" smooth="yes"/>
      <point x="274.152" y="697"/>
      <point x="266.277" y="707"/>
      <point x="267.765" y="714" type="qcurve" smooth="yes"/>
      <point x="269.466" y="722"/>
      <point x="281.591" y="732"/>
    </contour>
  </outline>
</glyph>
<glyph name="ogonek" format="1">
  <advance width="266"/>
  <unicode hex="02DB"/>
  <outline>
    <contour>
      <point x="145.338" y="11" type="line"/>
      <point x="143.425" y="2" type="line"/>
      <point x="44.8555" y="-123" type="line" smooth="yes"/>
      <point x="24.1165" y="-150"/>
      <point x="28.764" y="-194"/>
      <point x="72.5129" y="-214"/>
      <point x="106.638" y="-204" type="qcurve" smooth="yes"/>
      <point x="120.701" y="-199"/>
      <point x="147.614" y="-190"/>
      <point x="170.315" y="-182"/>
      <point x="184.165" y="-178"/>
      <point x="184.165" y="-178" type="qcurve"/>
      <point x="185.914" y="-198" type="line"/>
      <point x="185.914" y="-198"/>
      <point x="160.213" y="-206"/>
      <point x="124.875" y="-217"/>
      <point x="94.9622" y="-226"/>
      <point x="89.7497" y="-227" type="qcurve" smooth="yes"/>
      <point x="61.8994" y="-231"/>
      <point x="22.3003" y="-215"/>
      <point x="4.31471" y="-182"/>
      <point x="12.6672" y="-138"/>
      <point x="30.7686" y="-114" type="qcurve"/>
      <point x="127.638" y="3" type="line"/>
      <point x="129.126" y="10" type="line"/>
    </contour>
  </outline>
</glyph>
<glyph name="Deltagreek" format="1">
  <advance width="542"/>
  <unicode hex="0394"/>
  <outline>
    <contour>
      <point x="524" y="-0" type="line"/>
      <point x="20" y="-0" type="line"/>
      <point x="556.729" y="698" type="line"/>
      <point x="575.729" y="698" type="line"/>
    </contour>
    <contour>
      <point x="56.5023" y="20" type="line"/>
      <point x="505.502" y="20" type="line"/>
      <point x="556.101" y="673" type="line"/>
    </contour>
  </outline>
</glyph>
<glyph name="Eta" format="1">
  <advance width="513"/>
  <unicode hex="0397"/>
    <anchor name="top" x="412.229" y="735"/>
    <anchor name="tonos" x="233.79" y="700"/>
  <outline>
    <contour>
      <point x="538.361" y="411" type="line"/>
      <point x="599.364" y="698" type="line"/>
      <point x="618.364" y="698" type="line"/>
      <point x="470" y="-0" type="line"/>
      <point x="451" y="-0" type="line"/>
      <point x="534.535" y="393" type="line"/>
      <point x="143.535" y="393" type="line"/>
      <point x="60" y="-0" type="line"/>
      <point x="41" y="-0" type="line"/>
      <point x="189.364" y="698" type="line"/>
      <point x="208.364" y="698" type="line"/>
      <point x="147.361" y="411" type="line"/>
    </contour>
    <contour>
      <point x="412.229" y="735" type="move" name="top"/>
    </contour>
    <contour>
      <point x="233.79" y="700" type="move" name="tonos"/>
    </contour>
  </outline>
</glyph>
<glyph name="Theta" format="1">
  <advance width="486"/>
  <unicode hex="0398"/>
  <outline>
    <contour>
      <point x="140.554" y="506" type="line" smooth="yes"/>
      <point x="162.234" y="608"/>
      <point x="297.765" y="714"/>
      <point x="396.765" y="714" type="qcurve" smooth="yes"/>
      <point x="494.765" y="714"/>
      <point x="579.172" y="603"/>
      <point x="558.341" y="505" type="qcurve" smooth="yes"/>
      <point x="490.323" y="185" type="line" smooth="yes"/>
      <point x="477.357" y="124"/>
      <point x="406.652" y="36"/>
      <point x="303.662" y="-11"/>
      <point x="240.662" y="-11" type="qcurve" smooth="yes"/>
      <point x="182.662" y="-11"/>
      <point x="96.0144" y="33"/>
      <point x="58.7193" y="121"/>
      <point x="72.323" y="185" type="qcurve" smooth="yes"/>
    </contour>
    <contour>
      <point x="540.979" y="508" type="line" smooth="yes"/>
      <point x="559.471" y="595"/>
      <point x="484.302" y="693"/>
      <point x="389.302" y="693" type="qcurve" smooth="yes"/>
      <point x="295.302" y="693"/>
      <point x="177.833" y="592"/>
      <point x="159.554" y="506" type="qcurve" smooth="yes"/>
      <point x="128.308" y="359" type="line"/>
      <point x="509.308" y="359" type="line"/>
    </contour>
    <contour>
      <point x="244.7" y="8" type="qcurve" smooth="yes"/>
      <point x="298.7" y="8"/>
      <point x="392.99" y="47"/>
      <point x="459.57" y="125"/>
      <point x="472.11" y="184" type="qcurve" smooth="yes"/>
      <point x="505.057" y="339" type="line"/>
      <point x="124.057" y="339" type="line"/>
      <point x="91.1104" y="184" type="line" smooth="yes"/>
      <point x="79.8449" y="131"/>
      <point x="113.84" y="51"/>
      <point x="191.7" y="8"/>
    </contour>
  </outline>
</glyph>
<glyph name="Phi" format="1">
  <advance width="591"/>
  <unicode hex="03A6"/>
  <outline>
    <contour>
      <point x="302.451" y="689" type="line"/>
      <point x="265.113" y="678"/>
      <point x="209.336" y="632"/>
      <point x="171.457" y="562"/>
      <point x="161.679" y="516" type="qcurve" smooth="yes"/>
      <point x="97.6997" y="215" type="line" smooth="yes"/>
      <point x="85.7965" y="159"/>
      <point x="109.855" y="84"/>
      <point x="176.778" y="46"/>
      <point x="229.778" y="46" type="qcurve" smooth="yes"/>
      <point x="294.778" y="46" type="line"/>
      <point x="413.172" y="603" type="line" smooth="yes"/>
      <point x="418.486" y="628"/>
      <point x="439.775" y="667"/>
      <point x="470.302" y="693"/>
      <point x="509.277" y="707"/>
      <point x="532.49" y="708" type="qcurve" smooth="yes"/>
      <point x="587.34" y="712"/>
      <point x="654.075" y="659"/>
      <point x="677.307" y="566"/>
      <point x="665.191" y="509" type="qcurve" smooth="yes"/>
      <point x="604.613" y="224" type="line" smooth="yes"/>
      <point x="591.859" y="164"/>
      <point x="533.367" y="77"/>
      <point x="440.377" y="30"/>
      <point x="376.377" y="30" type="qcurve" smooth="yes"/>
      <point x="308.377" y="30" type="line"/>
      <point x="294.561" y="-35" type="line"/>
      <point x="277.986" y="-33" type="line"/>
      <point x="291.377" y="30" type="line"/>
      <point x="226.377" y="30" type="line" smooth="yes"/>
      <point x="163.377" y="30"/>
      <point x="89.3669" y="77"/>
      <point x="66.8593" y="164"/>
      <point x="79.6127" y="224" type="qcurve" smooth="yes"/>
      <point x="141.679" y="516" type="line" smooth="yes"/>
      <point x="173.563" y="666"/>
      <point x="297.64" y="704" type="qcurve"/>
    </contour>
    <contour>
      <point x="379.778" y="46" type="line" smooth="yes"/>
      <point x="445.778" y="46"/>
      <point x="530.043" y="99"/>
      <point x="575.26" y="180"/>
      <point x="584.4" y="223" type="qcurve" smooth="yes"/>
      <point x="645.404" y="510" type="line" smooth="yes"/>
      <point x="656.669" y="563"/>
      <point x="636.524" y="647"/>
      <point x="577.514" y="694"/>
      <point x="528.089" y="692" type="qcurve" smooth="yes"/>
      <point x="501.877" y="691"/>
      <point x="461.413" y="670"/>
      <point x="436.548" y="633"/>
      <point x="430.597" y="605" type="qcurve" smooth="yes"/>
      <point x="311.778" y="46" type="line"/>
    </contour>
  </outline>
</glyph>
<glyph name="Chi" format="1">
  <advance width="557"/>
  <unicode hex="03A7"/>
  <outline>
    <contour>
      <point x="358.984" y="381" type="line"/>
      <point x="638.364" y="698" type="line"/>
      <point x="662.364" y="698" type="line"/>
      <point x="368.158" y="363" type="line"/>
      <point x="534" y="-0" type="line"/>
      <point x="509" y="-0" type="line"/>
      <point x="351.332" y="345" type="line"/>
      <point x="50" y="-0" type="line"/>
      <point x="25" y="-0" type="line"/>
      <point x="344.158" y="363" type="line"/>
      <point x="191.364" y="698" type="line"/>
      <point x="213.364" y="698" type="line"/>
    </contour>
  </outline>
</glyph>
<glyph name="Omegagreek" format="1">
  <advance width="579"/>
  <unicode hex="03A9"/>
    <anchor name="tonos" x="393.579" y="700"/>
  <outline>
    <contour>
      <point x="616.322" y="196" type="line" smooth="yes"/>
      <point x="589.54" y="133"/>
      <point x="486.405" y="48"/>
      <point x="406.502" y="20" type="qcurve"/>
      <point x="545.502" y="20" type="line"/>
      <point x="546" y="0" type="line"/>
      <point x="318" y="0" type="line"/>
      <point x="326.502" y="20" type="line"/>
      <point x="360.502" y="20"/>
      <point x="436.705" y="44"/>
      <point x="479.483" y="67" type="qcurve" smooth="yes"/>
      <point x="522.26" y="90"/>
      <point x="582.893" y="155"/>
      <point x="600.322" y="196" type="qcurve" smooth="yes"/>
      <point x="729.982" y="501" type="line" smooth="yes"/>
      <point x="770.367" y="596"/>
      <point x="714.628" y="686"/>
      <point x="637.628" y="686" type="qcurve" smooth="yes"/>
      <point x="525.628" y="686" type="line" smooth="yes"/>
      <point x="447.628" y="686"/>
      <point x="316.517" y="594"/>
      <point x="277.407" y="502" type="qcurve" smooth="yes"/>
      <point x="147.322" y="196" type="line" smooth="yes"/>
      <point x="129.893" y="155"/>
      <point x="134.835" y="89"/>
      <point x="157.057" y="66" type="qcurve" smooth="yes"/>
      <point x="179.28" y="43"/>
      <point x="235.502" y="20"/>
      <point x="269.502" y="20" type="qcurve"/>
      <point x="261" y="0" type="line"/>
      <point x="33" y="0" type="line"/>
      <point x="48.5023" y="20" type="line"/>
      <point x="187.502" y="20" type="line"/>
      <point x="147.579" y="39"/>
      <point x="111.685" y="91"/>
      <point x="114.168" y="158"/>
      <point x="130.322" y="196" type="qcurve" smooth="yes"/>
      <point x="260.407" y="502" type="line" smooth="yes"/>
      <point x="299.517" y="594"/>
      <point x="439.705" y="705"/>
      <point x="533.705" y="705" type="qcurve" smooth="yes"/>
      <point x="645.705" y="705" type="line" smooth="yes"/>
      <point x="738.705" y="705"/>
      <point x="785.517" y="594"/>
      <point x="746.407" y="502" type="qcurve" smooth="yes"/>
    </contour>
    <contour>
      <point x="393.579" y="700" type="move" name="tonos"/>
    </contour>
  </outline>
</glyph>
<glyph name="beta" format="1">
  <advance width="441"/>
  <unicode hex="03B2"/>
  <outline>
    <contour>
      <point x="149.529" y="520" type="line" smooth="yes"/>
      <point x="159.732" y="568"/>
      <point x="218.374" y="651"/>
      <point x="305.002" y="701"/>
      <point x="356.002" y="701" type="qcurve" smooth="yes"/>
      <point x="426.002" y="701"/>
      <point x="485.147" y="617"/>
      <point x="467.331" y="552" type="qcurve"/>
      <point x="457.404" y="510"/>
      <point x="393.824" y="432"/>
      <point x="325.66" y="403" type="qcurve"/>
      <point x="347.873" y="404" type="line"/>
      <point x="397.873" y="404"/>
      <point x="451.709" y="375"/>
      <point x="472.144" y="330"/>
      <point x="469.878" y="277"/>
      <point x="464.777" y="253" type="qcurve" smooth="yes"/>
      <point x="446.71" y="168" type="line" smooth="yes"/>
      <point x="434.169" y="109"/>
      <point x="381.164" y="29"/>
      <point x="289.662" y="-11"/>
      <point x="216.662" y="-11" type="qcurve" smooth="yes"/>
      <point x="204.662" y="-11"/>
      <point x="145.512" y="-7"/>
      <point x="80.3623" y="-3"/>
      <point x="58.5749" y="-2" type="qcurve"/>
      <point x="13.938" y="-212" type="line"/>
      <point x="-4.78665" y="-206" type="line"/>
    </contour>
    <contour>
      <point x="169.529" y="520" type="qcurve" smooth="yes"/>
      <point x="132.332" y="345" type="line"/>
      <point x="272.598" y="398" type="line"/>
      <point x="336.486" y="421"/>
      <point x="428.94" y="489"/>
      <point x="447.544" y="553" type="qcurve"/>
      <point x="462.447" y="609"/>
      <point x="411.751" y="681"/>
      <point x="352.751" y="681" type="qcurve" smooth="yes"/>
      <point x="306.751" y="681"/>
      <point x="230.186" y="636"/>
      <point x="178.669" y="563"/>
    </contour>
    <contour>
      <point x="62.826" y="18" type="line"/>
      <point x="62.826" y="18"/>
      <point x="98.1883" y="15"/>
      <point x="150.338" y="11"/>
      <point x="203.488" y="7"/>
      <point x="220.488" y="7" type="qcurve"/>
      <point x="279.275" y="6"/>
      <point x="355.014" y="33"/>
      <point x="399.792" y="79"/>
      <point x="422.483" y="134"/>
      <point x="428.222" y="161" type="qcurve" smooth="yes"/>
      <point x="447.139" y="250" type="line" smooth="yes"/>
      <point x="455.004" y="287"/>
      <point x="445.97" y="348"/>
      <point x="397.834" y="385"/>
      <point x="345.834" y="385" type="qcurve" smooth="yes"/>
      <point x="316.834" y="385"/>
      <point x="257.284" y="373"/>
      <point x="227.945" y="362" type="qcurve" smooth="yes"/>
      <point x="208.458" y="355"/>
      <point x="161.632" y="337"/>
      <point x="127.868" y="324"/>
      <point x="127.868" y="324" type="qcurve"/>
    </contour>
  </outline>
</glyph>
<glyph name="delta" format="1">
  <advance width="429"/>
  <unicode hex="03B4"/>
  <outline>
    <contour>
      <point x="383.751" y="681" type="line" smooth="yes"/>
      <point x="362.751" y="681"/>
      <point x="316.775" y="667"/>
      <point x="280.761" y="634"/>
      <point x="272.597" y="605" type="qcurve" smooth="yes"/>
      <point x="264.858" y="578"/>
      <point x="279.206" y="542"/>
      <point x="309.892" y="517"/>
      <point x="325.554" y="506" type="qcurve"/>
      <point x="343.428" y="496"/>
      <point x="363.665" y="483"/>
      <point x="376.539" y="473"/>
      <point x="383.051" y="466" type="qcurve"/>
      <point x="396.138" y="457"/>
      <point x="420.462" y="435"/>
      <point x="433.486" y="421" type="qcurve" smooth="yes"/>
      <point x="456.172" y="396"/>
      <point x="468.719" y="328"/>
      <point x="459.579" y="285" type="qcurve" smooth="yes"/>
      <point x="437.898" y="183" type="line" smooth="yes"/>
      <point x="417.705" y="88"/>
      <point x="303.662" y="-11"/>
      <point x="211.662" y="-11" type="qcurve" smooth="yes"/>
      <point x="116.662" y="-11"/>
      <point x="46.7678" y="93"/>
      <point x="65.8979" y="183" type="qcurve" smooth="yes"/>
      <point x="92.8925" y="310" type="line" smooth="yes"/>
      <point x="102.458" y="355"/>
      <point x="146.974" y="428"/>
      <point x="177.288" y="453" type="qcurve" smooth="yes"/>
      <point x="193.264" y="467"/>
      <point x="227.515" y="487"/>
      <point x="266.491" y="501"/>
      <point x="286.341" y="505" type="qcurve"/>
      <point x="276.254" y="514" type="line" smooth="yes"/>
      <point x="258.08" y="532"/>
      <point x="246.007" y="574"/>
      <point x="251.321" y="599" type="qcurve" smooth="yes"/>
      <point x="259.824" y="639"/>
      <point x="306.751" y="681"/>
      <point x="364.364" y="698"/>
      <point x="387.364" y="698" type="qcurve" smooth="yes"/>
      <point x="499.364" y="698" type="line"/>
      <point x="485.751" y="681" type="line"/>
    </contour>
    <contour>
      <point x="442.98" y="301" type="line" smooth="yes"/>
      <point x="449.144" y="330"/>
      <point x="436.771" y="380"/>
      <point x="400.762" y="427"/>
      <point x="370.438" y="449" type="qcurve"/>
      <point x="357.776" y="460"/>
      <point x="325.027" y="480"/>
      <point x="307.365" y="491" type="qcurve"/>
      <point x="285.94" y="489"/>
      <point x="242.389" y="477"/>
      <point x="201.713" y="455"/>
      <point x="183.1" y="438" type="qcurve" smooth="yes"/>
      <point x="153.786" y="413"/>
      <point x="116.757" y="347"/>
      <point x="108.68" y="309" type="qcurve" smooth="yes"/>
      <point x="81.8979" y="183" type="line" smooth="yes"/>
      <point x="72.1202" y="137"/>
      <point x="87.1157" y="57"/>
      <point x="150.7" y="8"/>
      <point x="212.7" y="8" type="qcurve" smooth="yes"/>
      <point x="276.7" y="8"/>
      <point x="359.265" y="53"/>
      <point x="407.27" y="133"/>
      <point x="418.11" y="184" type="qcurve" smooth="yes"/>
    </contour>
  </outline>
</glyph>
<glyph name="eta" format="1">
  <advance width="442"/>
  <unicode hex="03B7"/>
    <anchor name="tonos" x="336.843" y="545"/>
  <outline>
    <contour>
      <point x="459.545" y="346" type="line" smooth="yes"/>
      <point x="471.66" y="403"/>
      <point x="445.689" y="469"/>
      <point x="375.428" y="496"/>
      <point x="320.79" y="493" type="qcurve" smooth="yes"/>
      <point x="277.365" y="491"/>
      <point x="184.264" y="467"/>
      <point x="152.288" y="453" type="qcurve"/>
      <point x="56" y="-0" type="line"/>
      <point x="38" y="-0" type="line"/>
      <point x="144.066" y="499" type="line"/>
      <point x="162.066" y="499" type="line"/>
      <point x="156.114" y="471" type="line"/>
      <point x="183.452" y="482"/>
      <point x="271.554" y="506"/>
      <point x="310.979" y="508" type="qcurve" smooth="yes"/>
      <point x="344.404" y="510"/>
      <point x="412.916" y="503"/>
      <point x="468.114" y="471"/>
      <point x="491.873" y="404"/>
      <point x="479.332" y="345" type="qcurve" smooth="yes"/>
      <point x="361.151" y="-211" type="line"/>
      <point x="343.064" y="-202" type="line"/>
    </contour>
    <contour>
      <point x="336.843" y="545" type="move" name="tonos"/>
    </contour>
  </outline>
</glyph>
<glyph name="xi" format="1">
  <advance width="426"/>
  <unicode hex="03BE"/>
  <outline>
    <contour>
      <point x="515.326" y="679" type="line"/>
      <point x="515.326" y="679"/>
      <point x="484.326" y="679"/>
      <point x="439.326" y="679"/>
      <point x="393.326" y="679"/>
      <point x="378.326" y="679" type="qcurve" smooth="yes"/>
      <point x="320.326" y="679"/>
      <point x="238.447" y="609"/>
      <point x="229.756" y="554" type="qcurve"/>
      <point x="224.616" y="511"/>
      <point x="249.501" y="454"/>
      <point x="301.998" y="414"/>
      <point x="336.81" y="399" type="qcurve"/>
      <point x="338.81" y="399"/>
      <point x="346.172" y="396"/>
      <point x="355.11" y="391"/>
      <point x="360.472" y="388" type="qcurve"/>
      <point x="351.646" y="370" type="line"/>
      <point x="329.346" y="378"/>
      <point x="284.834" y="385"/>
      <point x="259.834" y="385" type="qcurve" smooth="yes"/>
      <point x="207.834" y="385"/>
      <point x="144.182" y="349"/>
      <point x="109.429" y="289"/>
      <point x="101.352" y="251" type="qcurve" smooth="yes"/>
      <point x="82.4342" y="162" type="line" smooth="yes"/>
      <point x="76.6951" y="135"/>
      <point x="75.792" y="79"/>
      <point x="100.014" y="33"/>
      <point x="164.275" y="6"/>
      <point x="223.488" y="7" type="qcurve"/>
      <point x="237.488" y="7"/>
      <point x="279.913" y="9"/>
      <point x="329.551" y="12"/>
      <point x="381.188" y="15"/>
      <point x="403.826" y="18" type="qcurve"/>
      <point x="355.151" y="-211" type="line"/>
      <point x="336.426" y="-205" type="line"/>
      <point x="379.787" y="-1" type="line"/>
      <point x="354.15" y="-4"/>
      <point x="287.3" y="-8"/>
      <point x="230.874" y="-10"/>
      <point x="218.874" y="-10" type="qcurve" smooth="yes"/>
      <point x="145.874" y="-10"/>
      <point x="69.3767" y="30"/>
      <point x="51.1687" y="109"/>
      <point x="63.7095" y="168" type="qcurve" smooth="yes"/>
      <point x="81.9894" y="254" type="line" smooth="yes"/>
      <point x="87.0907" y="278"/>
      <point x="108.356" y="331"/>
      <point x="147.921" y="376"/>
      <point x="214.085" y="405"/>
      <point x="264.085" y="405" type="qcurve" smooth="yes"/>
      <point x="267.085" y="405"/>
      <point x="282.873" y="404"/>
      <point x="286.873" y="404" type="qcurve"/>
      <point x="249.911" y="423"/>
      <point x="212.114" y="471"/>
      <point x="202.592" y="525"/>
      <point x="207.544" y="553" type="qcurve" smooth="yes"/>
      <point x="214.684" y="596"/>
      <point x="260.5" y="661"/>
      <point x="332.577" y="699"/>
      <point x="378.79" y="700" type="qcurve"/>
      <point x="408.79" y="700"/>
      <point x="479.79" y="700"/>
      <point x="529.79" y="700"/>
      <point x="529.79" y="700" type="qcurve"/>
    </contour>
  </outline>
</glyph>
<glyph name="pi" format="1">
  <advance width="468"/>
  <unicode hex="03C0"/>
  <outline>
    <contour>
      <point x="429.367" y="77" type="line" smooth="yes"/>
      <point x="425.328" y="58"/>
      <point x="432.377" y="30"/>
      <point x="442.464" y="21" type="qcurve"/>
      <point x="425.85" y="4" type="line"/>
      <point x="420.126" y="10"/>
      <point x="411.314" y="25"/>
      <point x="408.352" y="44"/>
      <point x="409.029" y="66"/>
      <point x="411.792" y="79" type="qcurve" smooth="yes"/>
      <point x="499.452" y="482" type="line"/>
      <point x="156.452" y="482" type="line"/>
      <point x="54" y="-0" type="line"/>
      <point x="38" y="-0" type="line"/>
      <point x="143.853" y="498" type="line"/>
      <point x="518.853" y="498" type="line"/>
    </contour>
  </outline>
</glyph>
<glyph name="chi" format="1">
  <advance width="451"/>
  <unicode hex="03C7"/>
  <outline>
    <contour>
      <point x="319.256" y="-107" type="line" smooth="yes"/>
      <point x="332.479" y="-153"/>
      <point x="371.339" y="-196"/>
      <point x="404.914" y="-198" type="qcurve"/>
      <point x="393.151" y="-211" type="line"/>
      <point x="353.151" y="-211"/>
      <point x="316.204" y="-159"/>
      <point x="301.256" y="-107" type="qcurve" smooth="yes"/>
      <point x="234.845" y="131" type="line"/>
      <point x="-3.66109" y="-196" type="line"/>
      <point x="-19.1732" y="-189" type="line"/>
      <point x="228.458" y="148" type="line"/>
      <point x="126.853" y="498" type="line"/>
      <point x="146.853" y="498" type="line"/>
      <point x="241.284" y="166" type="line"/>
      <point x="485.853" y="498" type="line"/>
      <point x="505.853" y="498" type="line"/>
      <point x="248.458" y="148" type="line"/>
    </contour>
  </outline>
</glyph>
<glyph name="omega" format="1">
  <advance width="593"/>
  <unicode hex="03C9"/>
    <anchor name="tonos" x="411.843" y="545"/>
  <outline>
    <contour>
      <point x="560.641" y="497" type="line"/>
      <point x="658.351" y="458"/>
      <point x="627.955" y="315" type="qcurve" smooth="yes"/>
      <point x="600.536" y="186" type="line" smooth="yes"/>
      <point x="579.492" y="87"/>
      <point x="478.237" y="-13"/>
      <point x="398.237" y="-13" type="qcurve" smooth="yes"/>
      <point x="378.237" y="-13"/>
      <point x="334.85" y="4"/>
      <point x="307.927" y="42"/>
      <point x="311.517" y="73" type="qcurve"/>
      <point x="301.927" y="42"/>
      <point x="257.85" y="4"/>
      <point x="208.237" y="-13"/>
      <point x="187.237" y="-13" type="qcurve" smooth="yes"/>
      <point x="108.237" y="-13"/>
      <point x="48.4924" y="87"/>
      <point x="69.5355" y="186" type="qcurve" smooth="yes"/>
      <point x="96.9553" y="315" type="line" smooth="yes"/>
      <point x="112.047" y="386"/>
      <point x="184.602" y="478"/>
      <point x="242.641" y="497" type="qcurve"/>
      <point x="244.452" y="482" type="line"/>
      <point x="198.839" y="465"/>
      <point x="128.685" y="389"/>
      <point x="112.955" y="315" type="qcurve" smooth="yes"/>
      <point x="84.0476" y="179" type="line" smooth="yes"/>
      <point x="65.7678" y="93"/>
      <point x="118.063" y="5"/>
      <point x="187.063" y="5" type="qcurve" smooth="yes"/>
      <point x="236.063" y="5"/>
      <point x="296.328" y="58"/>
      <point x="309.169" y="109" type="qcurve"/>
      <point x="348.917" y="296" type="line"/>
      <point x="368.917" y="296" type="line"/>
      <point x="329.169" y="109" type="line"/>
      <point x="320.328" y="58"/>
      <point x="357.063" y="5"/>
      <point x="406.063" y="5" type="qcurve" smooth="yes"/>
      <point x="475.063" y="5"/>
      <point x="564.768" y="93"/>
      <point x="583.048" y="179" type="qcurve" smooth="yes"/>
      <point x="611.955" y="315" type="line" smooth="yes"/>
      <point x="627.685" y="389"/>
      <point x="589.839" y="465"/>
      <point x="551.452" y="482" type="qcurve"/>
    </contour>
    <contour>
      <point x="411.843" y="545" type="move" name="tonos"/>
    </contour>
  </outline>
</glyph>
<glyph name="quoteleft" format="1">
  <advance width="103"/>
  <unicode hex="2018"/>
  <outline>
    <contour>
      <point x="215.35" y="665" type="line"/>
      <point x="197.587" y="652"/>
      <point x="180.998" y="621"/>
      <point x="176.66" y="610" type="qcurve"/>
      <point x="181.447" y="609"/>
      <point x="187.746" y="601"/>
      <point x="186.471" y="595" type="qcurve" smooth="yes"/>
      <point x="184.983" y="588"/>
      <point x="173.07" y="579"/>
      <point x="165.07" y="579" type="qcurve" smooth="yes"/>
      <point x="158.07" y="579"/>
      <point x="151.983" y="588"/>
      <point x="153.471" y="595" type="qcurve" smooth="yes"/>
      <point x="157.722" y="615"/>
      <point x="174.886" y="644"/>
      <point x="194.925" y="663"/>
      <point x="207.838" y="672"/>
      <point x="207.838" y="672" type="qcurve"/>
    </contour>
  </outline>
</glyph>
<glyph name="quotedblleft" format="1">
  <advance width="282"/>
  <unicode hex="201C"/>
  <outline>
    <contour>
      <point x="394.35" y="665" type="line"/>
      <point x="376.587" y="652"/>
      <point x="359.998" y="621"/>
      <point x="356.66" y="610" type="qcurve"/>
      <point x="362.447" y="609"/>
      <point x="366.746" y="601"/>
      <point x="365.471" y="595" type="qcurve" smooth="yes"/>
      <point x="363.983" y="588"/>
      <point x="352.07" y="579"/>
      <point x="345.07" y="579" type="qcurve" smooth="yes"/>
      <point x="338.07" y="579"/>
      <point x="330.983" y="588"/>
      <point x="332.471" y="595" type="qcurve" smooth="yes"/>
      <point x="336.722" y="615"/>
      <point x="353.886" y="644"/>
      <point x="373.925" y="663"/>
      <point x="386.838" y="672"/>
      <point x="386.838" y="672" type="qcurve"/>
    </contour>
    <contour>
      <point x="215.35" y="665" type="line"/>
      <point x="197.587" y="652"/>
      <point x="180.998" y="621"/>
      <point x="176.66" y="610" type="qcurve"/>
      <point x="181.447" y="609"/>
      <point x="187.746" y="601"/>
      <point x="186.471" y="595" type="qcurve" smooth="yes"/>
      <point x="184.983" y="588"/>
      <point x="173.07" y="579"/>
      <point x="165.07" y="579" type="qcurve" smooth="yes"/>
      <point x="158.07" y="579"/>
      <point x="151.983" y="588"/>
      <point x="153.471" y="595" type="qcurve" smooth="yes"/>
      <point x="157.722" y="615"/>
      <point x="174.886" y="644"/>
      <point x="194.925" y="663"/>
      <point x="207.838" y="672"/>
      <point x="207.838" y="672" type="qcurve"/>
    </contour>
  </outline>
</glyph>
<glyph name="quotedblbase" format="1">
  <advance width="292"/>
  <unicode hex="201E"/>
  <outline>
    <contour>
      <point x="24.4107" y="-31" type="line"/>
      <point x="42.3865" y="-17"/>
      <point x="58.9758" y="14"/>
      <point x="62.1014" y="24" type="qcurve"/>
      <point x="57.5265" y="26"/>
      <point x="53.2269" y="34"/>
      <point x="54.5023" y="40" type="qcurve" smooth="yes"/>
      <point x="56.2027" y="48"/>
      <point x="67.1157" y="57"/>
      <point x="74.1157" y="57" type="qcurve" smooth="yes"/>
      <point x="82.1157" y="57"/>
      <point x="89.2027" y="48"/>
      <point x="87.5023" y="40" type="qcurve" smooth="yes"/>
      <point x="83.2511" y="20"/>
      <point x="65.087" y="-9"/>
      <point x="46.0484" y="-28"/>
      <point x="32.1354" y="-37"/>
      <point x="32.1354" y="-37" type="qcurve"/>
    </contour>
    <contour>
      <point x="204.411" y="-31" type="line"/>
      <point x="222.387" y="-17"/>
      <point x="237.976" y="14"/>
      <point x="241.101" y="24" type="qcurve"/>
      <point x="237.526" y="26"/>
      <point x="232.227" y="34"/>
      <point x="233.502" y="40" type="qcurve" smooth="yes"/>
      <point x="235.203" y="48"/>
      <point x="247.116" y="57"/>
      <point x="254.116" y="57" type="qcurve" smooth="yes"/>
      <point x="262.116" y="57"/>
      <point x="268.203" y="48"/>
      <point x="266.502" y="40" type="qcurve" smooth="yes"/>
      <point x="262.251" y="20"/>
      <point x="245.087" y="-9"/>
      <point x="225.048" y="-28"/>
      <point x="212.135" y="-37"/>
      <point x="212.135" y="-37" type="qcurve"/>
    </contour>
  </outline>
</glyph>
<glyph name="trademark" format="1">
  <advance width="427"/>
  <unicode hex="2122"/>
  <outline>
    <contour>
      <point x="263.113" y="678" type="line"/>
      <point x="227.829" y="512" type="line"/>
      <point x="208.829" y="512" type="line"/>
      <point x="244.113" y="678" type="line"/>
      <point x="166.113" y="678" type="line"/>
      <point x="170.364" y="698" type="line"/>
      <point x="369.364" y="698" type="line"/>
      <point x="403.868" y="531" type="line"/>
      <point x="512.364" y="698" type="line"/>
      <point x="540.364" y="698" type="line"/>
      <point x="500.829" y="512" type="line"/>
      <point x="484.829" y="512" type="line"/>
      <point x="520.113" y="678" type="line"/>
      <point x="410.829" y="512" type="line"/>
      <point x="389.829" y="512" type="line"/>
      <point x="352.113" y="678" type="line"/>
      <point x="316.829" y="512" type="line"/>
      <point x="297.829" y="512" type="line"/>
      <point x="333.113" y="678" type="line"/>
    </contour>
  </outline>
</glyph>
<glyph name="commaaccent" format="1">
  <advance width="266"/>
  <unicode hex="F6C3"/>
  <outline>
    <contour>
      <point x="73.5031" y="-167" type="line"/>
      <point x="90.4788" y="-153"/>
      <point x="107.643" y="-124"/>
      <point x="110.981" y="-113" type="qcurve"/>
      <point x="106.406" y="-111"/>
      <point x="102.107" y="-103"/>
      <point x="103.382" y="-97" type="qcurve" smooth="yes"/>
      <point x="104.87" y="-90"/>
      <point x="115.995" y="-80"/>
      <point x="122.995" y="-80" type="qcurve" smooth="yes"/>
      <point x="130.995" y="-80"/>
      <point x="138.082" y="-89"/>
      <point x="136.382" y="-97" type="qcurve" smooth="yes"/>
      <point x="132.131" y="-117"/>
      <point x="113.967" y="-146"/>
      <point x="94.9282" y="-165"/>
      <point x="81.0152" y="-174"/>
      <point x="81.0152" y="-174" type="qcurve"/>
    </contour>
  </outline>
</glyph>
<glyph name="ff" format="1">
  <advance width="491"/>
  <unicode hex="FB00"/>
  <outline>
    <contour>
      <point x="749.55" y="667" type="line"/>
      <point x="724.227" y="678"/>
      <point x="665.077" y="680"/>
      <point x="629.275" y="664" type="qcurve" smooth="yes"/>
      <point x="596.473" y="648"/>
      <point x="545.793" y="597"/>
      <point x="529.638" y="559" type="qcurve" smooth="yes"/>
      <point x="503.706" y="498" type="line"/>
      <point x="652.706" y="498" type="line"/>
      <point x="637.905" y="482" type="line"/>
      <point x="496.905" y="482" type="line"/>
      <point x="292" y="-0" type="line"/>
      <point x="271" y="-0" type="line"/>
      <point x="509.063" y="560" type="line" smooth="yes"/>
      <point x="520.116" y="586"/>
      <point x="553.246" y="631"/>
      <point x="573.898" y="649" type="qcurve"/>
      <point x="559.976" y="668"/>
      <point x="508.628" y="686"/>
      <point x="480.202" y="685" type="qcurve"/>
      <point x="445.202" y="685"/>
      <point x="373.874" y="656"/>
      <point x="313.643" y="599"/>
      <point x="295.788" y="557" type="qcurve" smooth="yes"/>
      <point x="270.706" y="498" type="line"/>
      <point x="420.706" y="498" type="line"/>
      <point x="405.905" y="482" type="line"/>
      <point x="263.905" y="482" type="line"/>
      <point x="59" y="-0" type="line"/>
      <point x="39" y="-0" type="line"/>
      <point x="277.063" y="560" type="line" smooth="yes"/>
      <point x="297.469" y="608"/>
      <point x="367.251" y="671"/>
      <point x="445.855" y="703"/>
      <point x="479.28" y="704" type="qcurve" smooth="yes"/>
      <point x="516.705" y="705"/>
      <point x="571.478" y="688"/>
      <point x="594.425" y="662" type="qcurve"/>
      <point x="622.077" y="680"/>
      <point x="675.729" y="698"/>
      <point x="701.729" y="698" type="qcurve" smooth="yes"/>
      <point x="718.729" y="698"/>
      <point x="753.903" y="689"/>
      <point x="761.502" y="681" type="qcurve"/>
    </contour>
  </outline>
</glyph>
<glyph name="fi" format="1">
  <advance width="348"/>
  <unicode hex="FB01"/>
  <outline>
    <contour>
      <point x="158.032" y="560" type="line" smooth="yes"/>
      <point x="165.046" y="593"/>
      <point x="198.524" y="647"/>
      <point x="224.775" y="667" type="qcurve" smooth="yes"/>
      <point x="250.026" y="687"/>
      <point x="306.277" y="707"/>
      <point x="335.277" y="707" type="qcurve" smooth="yes"/>
      <point x="368.277" y="707"/>
      <point x="424.176" y="683"/>
      <point x="443.862" y="658" type="qcurve"/>
      <point x="429.099" y="645" type="line"/>
      <point x="409.988" y="668"/>
      <point x="358.664" y="690"/>
      <point x="331.664" y="690" type="qcurve" smooth="yes"/>
      <point x="297.664" y="690"/>
      <point x="231.437" y="656"/>
      <point x="183.471" y="595"/>
      <point x="176.756" y="554" type="qcurve"/>
      <point x="164.853" y="498" type="line"/>
      <point x="314.853" y="498" type="line"/>
      <point x="304.452" y="482" type="line"/>
      <point x="161.452" y="482" type="line"/>
      <point x="59" y="-0" type="line"/>
      <point x="39" y="-0" type="line"/>
    </contour>
    <contour>
      <point x="308" y="-0" type="line"/>
      <point x="288" y="-0" type="line"/>
      <point x="393.853" y="498" type="line"/>
      <point x="413.853" y="498" type="line"/>
    </contour>
  </outline>
</glyph>
<glyph name="ffl" format="1">
  <advance width="576"/>
  <unicode hex="FB04"/>
  <outline>
    <contour>
      <point x="791.623" y="646" type="line"/>
      <point x="772.376" y="676"/>
      <point x="700.753" y="691"/>
      <point x="660.652" y="679" type="qcurve" smooth="yes"/>
      <point x="619.125" y="666"/>
      <point x="543.619" y="606"/>
      <point x="527.339" y="563" type="qcurve"/>
      <point x="499.706" y="498" type="line"/>
      <point x="650.706" y="498" type="line"/>
      <point x="636.905" y="482" type="line"/>
      <point x="492.905" y="482" type="line"/>
      <point x="288" y="-0" type="line"/>
      <point x="268" y="-0" type="line"/>
      <point x="505.638" y="559" type="line" smooth="yes"/>
      <point x="513.29" y="577"/>
      <point x="533.469" y="608"/>
      <point x="558.797" y="637"/>
      <point x="572.898" y="649" type="qcurve"/>
      <point x="556.976" y="668"/>
      <point x="509.628" y="686"/>
      <point x="481.053" y="687" type="qcurve" smooth="yes"/>
      <point x="447.478" y="688"/>
      <point x="374.299" y="657"/>
      <point x="313.218" y="598"/>
      <point x="295.788" y="557" type="qcurve" smooth="yes"/>
      <point x="270.706" y="498" type="line"/>
      <point x="420.706" y="498" type="line"/>
      <point x="405.905" y="482" type="line"/>
      <point x="263.905" y="482" type="line"/>
      <point x="59" y="-0" type="line"/>
      <point x="39" y="-0" type="line"/>
      <point x="276.638" y="559" type="line" smooth="yes"/>
      <point x="292.367" y="596"/>
      <point x="341.749" y="651"/>
      <point x="399.628" y="686"/>
      <point x="456.28" y="704"/>
      <point x="479.28" y="704" type="qcurve" smooth="yes"/>
      <point x="509.28" y="704"/>
      <point x="565.478" y="688"/>
      <point x="594.425" y="662" type="qcurve"/>
      <point x="618.652" y="679"/>
      <point x="681.855" y="703"/>
      <point x="714.855" y="703" type="qcurve" smooth="yes"/>
      <point x="747.855" y="703"/>
      <point x="795.227" y="678"/>
      <point x="812.024" y="654" type="qcurve"/>
      <point x="534" y="-0" type="line"/>
      <point x="517" y="-0" type="line"/>
    </contour>
  </outline>
</glyph>
<glyph name="commaturnedabovecomb" format="1">
  <advance width="266"/>
    <anchor name="top" x="292.417" y="750"/>
    <anchor name="_top" x="260.534" y="600"/>
    <anchor name="top.1" x="292.417" y="750"/>
    <anchor name="_top.1" x="260.534" y="600"/>
  <outline>
    <contour>
      <point x="301.326" y="679" type="line"/>
      <point x="284.35" y="665"/>
      <point x="267.973" y="635"/>
      <point x="263.635" y="624" type="qcurve"/>
      <point x="268.21" y="622"/>
      <point x="272.51" y="614"/>
      <point x="271.234" y="608" type="qcurve" smooth="yes"/>
      <point x="269.746" y="601"/>
      <point x="258.833" y="592"/>
      <point x="251.833" y="592" type="qcurve" smooth="yes"/>
      <point x="244.833" y="592"/>
      <point x="236.746" y="601"/>
      <point x="238.234" y="608" type="qcurve" smooth="yes"/>
      <point x="242.486" y="628"/>
      <point x="260.65" y="657"/>
      <point x="279.688" y="676"/>
      <point x="293.601" y="685"/>
      <point x="293.601" y="685" type="qcurve"/>
    </contour>
    <contour>
      <point x="292.417" y="750" type="move" name="top"/>
    </contour>
    <contour>
      <point x="260.534" y="600" type="move" name="_top"/>
    </contour>
    <contour>
      <point x="292.417" y="750" type="move" name="top.1"/>
    </contour>
    <contour>
      <point x="260.534" y="600" type="move" name="_top.1"/>
    </contour>
  </outline>
</glyph>
<glyph name="ft" format="1">
  <advance width="485"/>
  <outline>
    <contour>
      <point x="333.057" y="132" type="line" smooth="yes"/>
      <point x="321.367" y="77"/>
      <point x="353.464" y="21"/>
      <point x="400.85" y="4" type="qcurve"/>
      <point x="389.237" y="-13" type="line"/>
      <point x="336.638" y="3"/>
      <point x="300.517" y="73"/>
      <point x="313.057" y="132" type="qcurve" smooth="yes"/>
      <point x="422.312" y="646" type="line"/>
      <point x="406.563" y="666"/>
      <point x="358.601" y="685"/>
      <point x="332.814" y="686" type="qcurve" smooth="yes"/>
      <point x="298.026" y="687"/>
      <point x="230.65" y="657"/>
      <point x="181.746" y="601"/>
      <point x="174.669" y="563" type="qcurve"/>
      <point x="160.853" y="498" type="line"/>
      <point x="313.853" y="498" type="line"/>
      <point x="303.452" y="482" type="line"/>
      <point x="157.452" y="482" type="line"/>
      <point x="55" y="-0" type="line"/>
      <point x="51" y="-0"/>
      <point x="43" y="-0"/>
      <point x="39" y="-0" type="qcurve"/>
      <point x="158.032" y="560" type="line" smooth="yes"/>
      <point x="166.746" y="601"/>
      <point x="208.65" y="657"/>
      <point x="261.664" y="690"/>
      <point x="316.64" y="704"/>
      <point x="338.64" y="704" type="qcurve" smooth="yes"/>
      <point x="370.64" y="704"/>
      <point x="421.326" y="679"/>
      <point x="444.437" y="656" type="qcurve"/>
      <point x="410.853" y="498" type="line"/>
      <point x="567.853" y="498" type="line"/>
      <point x="556.452" y="482" type="line"/>
      <point x="407.452" y="482" type="line"/>
    </contour>
  </outline>
</glyph>
